<?xml version="1.0" encoding="UTF-8"?>
<svg version="1.1" xmlns="http://www.w3.org/2000/svg" width="500" height="500">
<path d="M0 0 C165 0 330 0 500 0 C500 165 500 330 500 500 C335 500 170 500 0 500 C0 335 0 170 0 0 Z " fill="#E7DCC9" transform="translate(0,0)"/>
<path d="M0 0 C1.25039062 0.00966797 2.50078125 0.01933594 3.7890625 0.02929688 C5.74199219 0.06700195 5.74199219 0.06700195 7.734375 0.10546875 C9.05179688 0.11900391 10.36921875 0.13253906 11.7265625 0.14648438 C14.97957821 0.18184324 18.231771 0.23119842 21.484375 0.29296875 C21.67990967 0.90422607 21.87544434 1.5154834 22.0769043 2.14526367 C22.33898682 2.95068604 22.60106934 3.7561084 22.87109375 4.5859375 C23.12850342 5.38281982 23.38591309 6.17970215 23.65112305 7.00073242 C25.81119471 12.9429864 29.07085176 16.18307242 34.484375 19.29296875 C40.09916135 21.1645642 45.65242118 20.90362002 51.234375 19.04296875 C54.46610253 17.30280777 57.44561724 15.34710109 60.484375 13.29296875 C62.71376105 15.04268987 64.94289004 16.7927368 67.171875 18.54296875 C67.79771484 19.03410156 68.42355469 19.52523437 69.06835938 20.03125 C70.3024601 21.00043905 71.53539041 21.97112046 72.76708984 22.94335938 C74.27485522 24.12830777 75.79469988 25.29785239 77.31640625 26.46484375 C79.73048004 28.50049516 81.36946702 30.09103127 81.6796875 33.3359375 C81.61458333 35.32161458 81.54947917 37.30729167 81.484375 39.29296875 C77.54608964 41.60960719 73.79202315 43.72655124 69.484375 45.29296875 C69.484375 44.63296875 69.484375 43.97296875 69.484375 43.29296875 C65.06523955 51.28502223 62.23118243 59.6216747 59.484375 68.29296875 C58.76043964 70.54465736 58.03174082 72.79482368 57.296875 75.04296875 C56.99394531 75.9865625 56.69101563 76.93015625 56.37890625 77.90234375 C55.484375 80.29296875 55.484375 80.29296875 53.484375 83.29296875 C53.59360191 85.86111238 53.59360191 85.86111238 54.20703125 88.69921875 C54.40828613 89.77042969 54.60954102 90.84164062 54.81689453 91.9453125 C55.03716309 93.05003906 55.25743164 94.15476562 55.484375 95.29296875 C55.68015137 96.32550781 55.87592773 97.35804688 56.07763672 98.421875 C56.67513437 101.54922416 57.29559539 104.67126542 57.921875 107.79296875 C58.22834961 109.34951172 58.22834961 109.34951172 58.54101562 110.9375 C59.58445532 116.15794907 60.7219351 121.32773023 62.046875 126.484375 C63.53126531 132.29914921 64.51135492 138.11035304 65.38867188 144.04101562 C66.01836593 148.09005394 66.92293494 151.48884259 68.484375 155.29296875 C69.08047577 157.96175016 69.62339183 160.60518431 70.109375 163.29296875 C70.31046875 164.34097656 70.31046875 164.34097656 70.515625 165.41015625 C71.19436364 169.08088563 71.64481196 172.5591631 71.484375 176.29296875 C72.804375 176.29296875 74.124375 176.29296875 75.484375 176.29296875 C75.60167969 175.17921875 75.71898437 174.06546875 75.83984375 172.91796875 C76.46312145 167.94921205 77.60167649 163.15093027 78.796875 158.29296875 C79.02052734 157.37161133 79.24417969 156.45025391 79.47460938 155.50097656 C79.92836167 153.63619682 80.38422307 151.7719289 80.84228516 149.90820312 C81.41017483 147.59518633 81.97025969 145.28048015 82.52734375 142.96484375 C84.16544946 136.21872878 85.97427114 129.56120974 87.984375 122.91796875 C89.96335533 116.37159178 91.53866612 109.80369532 92.96044922 103.11621094 C94.46872946 96.12009935 96.36722793 89.25740492 98.3359375 82.37890625 C99.47684212 78.37159663 100.48961435 74.33932598 101.484375 70.29296875 C102.474375 66.33296875 103.464375 62.37296875 104.484375 58.29296875 C114.054375 58.29296875 123.624375 58.29296875 133.484375 58.29296875 C135.91762943 66.20104566 138.16024249 73.76200691 139.859375 81.79296875 C141.6832946 90.12033753 143.84421252 98.28434698 146.2512207 106.46020508 C148.29543335 113.46565292 150.01302403 120.51910548 151.66015625 127.62695312 C152.97104835 133.24446189 154.40961608 138.80634751 155.984375 144.35546875 C157.86285663 150.97569795 159.62232281 157.61808412 161.296875 164.29296875 C161.62558594 165.59439819 161.62558594 165.59439819 161.9609375 166.92211914 C162.16074219 167.72512451 162.36054688 168.52812988 162.56640625 169.35546875 C162.74405518 170.06832031 162.9217041 170.78117188 163.10473633 171.515625 C163.484375 173.29296875 163.484375 173.29296875 163.484375 175.29296875 C164.474375 174.96296875 165.464375 174.63296875 166.484375 174.29296875 C167.3444479 171.45495991 167.99726605 168.75077099 168.5703125 165.8515625 C168.75243286 164.98500534 168.93455322 164.11844818 169.12219238 163.22563171 C169.71374037 160.39634317 170.28655869 157.56360335 170.859375 154.73046875 C171.26063755 152.79580277 171.66314534 150.86139466 172.06689453 148.92724609 C173.04717014 144.21792997 174.01346492 139.5058945 174.97412109 134.7925415 C175.88968126 130.30750139 176.82027588 125.82561107 177.75244141 121.34399414 C178.13893177 119.48072501 178.52181489 117.61670135 178.89990234 115.75170898 C179.81427323 111.2818855 180.83224817 106.8584395 181.9609375 102.4375 C183.52188984 96.28232516 184.77895049 90.08868003 185.984375 83.85546875 C187.64795697 75.28533841 189.51962891 66.80686846 191.484375 58.29296875 C202.044375 58.29296875 212.604375 58.29296875 223.484375 58.29296875 C222.81245537 62.99640614 222.07466042 67.47743961 221.06640625 72.09765625 C220.92871826 72.73030396 220.79103027 73.36295166 220.64916992 74.01477051 C220.20137432 76.06649989 219.74940743 78.11727932 219.296875 80.16796875 C219.14197601 80.87383118 218.98707703 81.5796936 218.82748413 82.3069458 C216.51844999 92.82342408 214.08479163 103.30462867 211.54418945 113.76782227 C208.8449997 124.88602119 206.3817724 136.04560885 204.01171875 147.23828125 C203.74939453 148.47344482 203.48707031 149.7086084 203.21679688 150.98120117 C202.70065424 153.41559997 202.18746091 155.85062664 201.67773438 158.28637695 C200.35212661 164.54614203 198.86598821 170.71321228 197.13842773 176.8737793 C196.27980675 180.0496193 195.6460334 183.24650201 195.046875 186.48046875 C192.4980477 199.58303411 188.92416858 212.39374283 185.484375 225.29296875 C173.274375 225.29296875 161.064375 225.29296875 148.484375 225.29296875 C141.27690423 202.03867625 141.27690423 202.03867625 139.2109375 192.48046875 C136.89088549 182.30217608 133.78434454 172.29176102 130.83789062 162.28173828 C126.55289621 147.71595503 122.83228481 133.10493338 119.484375 118.29296875 C118.494375 118.29296875 117.504375 118.29296875 116.484375 118.29296875 C116.29875 120.05640625 116.29875 120.05640625 116.109375 121.85546875 C115.69220613 125.81857303 114.60056909 129.47246618 113.484375 133.29296875 C112.93418082 135.49919296 112.39322436 137.70773262 111.859375 139.91796875 C109.92289915 147.81906012 107.73439244 155.64579716 105.546875 163.48046875 C102.91489643 172.92679772 100.42835292 182.38034143 98.21386719 191.93286133 C96.8354898 197.8708031 95.35429643 203.77443364 93.796875 209.66796875 C93.59425049 210.43512207 93.39162598 211.20227539 93.18286133 211.99267578 C91.99853606 216.44241853 90.7498783 220.8637072 89.484375 225.29296875 C76.944375 225.29296875 64.404375 225.29296875 51.484375 225.29296875 C48.671875 211.98046875 48.671875 211.98046875 47.80541992 207.85424805 C46.42795363 201.38236531 44.91017639 194.99431774 43.12084961 188.62426758 C42.32332852 185.70308275 41.72436412 182.76964484 41.171875 179.79296875 C39.70461498 172.24594516 38.0793699 164.73791626 36.421875 157.23046875 C36.0355188 155.46316406 36.0355188 155.46316406 35.64135742 153.66015625 C35.39232666 152.53738281 35.1432959 151.41460937 34.88671875 150.2578125 C34.66491943 149.25355225 34.44312012 148.24929199 34.21459961 147.21459961 C33.5115627 144.22770665 33.5115627 144.22770665 32.40454102 141.13110352 C31.40156165 138.03754151 31.33051865 135.52395201 31.484375 132.29296875 C30.75734375 132.36515625 30.0303125 132.43734375 29.28125 132.51171875 C9.37206823 134.34948937 -4.3437361 132.21513286 -21.49609375 121.9765625 C-25.68137484 119.64298404 -30.00818329 117.89849555 -34.515625 116.29296875 C-34.01904203 110.63192286 -32.97051816 106.41622404 -30.515625 101.29296875 C-25.52642234 104.91544834 -20.81881066 108.70200911 -16.27734375 112.875 C-14.46262105 114.5042413 -14.46262105 114.5042413 -11.515625 115.29296875 C-12.22847656 114.72449219 -12.94132812 114.15601563 -13.67578125 113.5703125 C-16.64817038 111.17399879 -19.58929304 108.74528977 -22.515625 106.29296875 C-23.66611328 105.33003906 -23.66611328 105.33003906 -24.83984375 104.34765625 C-25.79310547 103.48527344 -25.79310547 103.48527344 -26.765625 102.60546875 C-27.32765625 102.10660156 -27.8896875 101.60773438 -28.46875 101.09375 C-30.08007091 98.32203755 -29.2166601 96.34586356 -28.515625 93.29296875 C-28.37382813 92.31457031 -28.23203125 91.33617187 -28.0859375 90.328125 C-27.20919659 84.47549491 -26.11794929 79.6017103 -23.515625 74.29296875 C-22.96736895 73.02496424 -22.4256583 71.75410901 -21.890625 70.48046875 C-21.13734827 68.73423634 -20.36612526 66.99396927 -19.515625 65.29296875 C-18.855625 65.29296875 -18.195625 65.29296875 -17.515625 65.29296875 C-17.48984375 66.32292969 -17.4640625 67.35289062 -17.4375 68.4140625 C-17.05102162 79.12014714 -15.2962473 88.95940031 -12.515625 99.29296875 C-12.72058594 98.40996094 -12.92554687 97.52695313 -13.13671875 96.6171875 C-18.79366879 71.41804641 -18.35315064 46.25311374 -8.76538086 22.15380859 C-6.80062305 17.03763131 -6.02765243 13.64124753 -7.515625 8.29296875 C-8.175625 7.96296875 -8.835625 7.63296875 -9.515625 7.29296875 C-9.845625 8.28296875 -10.175625 9.27296875 -10.515625 10.29296875 C-10.845625 10.29296875 -11.175625 10.29296875 -11.515625 10.29296875 C-11.0276776 3.82766573 -11.0276776 3.82766573 -8.87597656 1.58081055 C-5.76448611 -0.11686344 -3.53493124 -0.04820361 0 0 Z " fill="#2F3F50" transform="translate(68.515625,125.70703125)"/>
<path d="M0 0 C1.05773621 0.00214508 1.05773621 0.00214508 2.13684082 0.0043335 C13.54719651 0.06158257 23.79775832 1.18473996 34.4375 5.5 C35.55640625 5.94601563 36.6753125 6.39203125 37.828125 6.8515625 C45.17633889 10.15641247 50.75513226 14.84277548 56.4375 20.5 C53.62736538 25.38759387 50.34125481 29.86989421 47.02148438 34.41601562 C44.90177677 37.34685201 42.90185484 40.18245033 41.4375 43.5 C39.375 43.875 39.375 43.875 36.4375 43.5 C34.96875 42.375 34.96875 42.375 33.375 40.875 C22.50319641 30.85774866 9.22693967 28.88757948 -4.90234375 29.1875 C-11.31835287 29.49751453 -17.36426708 30.6763349 -22.296875 35.03125 C-26.35491057 39.68203234 -26.85456302 43.00647415 -26.77734375 48.9609375 C-26.37758204 53.68539409 -24.63936121 56.48134751 -21.25 59.6875 C-14.57924508 64.18638122 -8.18481347 65.57165653 -0.375 67 C7.6822193 68.50014293 15.56329222 70.22039854 23.4375 72.5 C24.12610107 72.69062012 24.81470215 72.88124023 25.52416992 73.07763672 C38.50739541 76.71880075 49.90144575 82.94334769 56.8359375 94.9140625 C63.7688218 108.17871396 64.89940087 124.27597456 60.875 138.75 C55.88468213 152.13312519 46.19419937 161.29099763 33.41796875 167.25 C22.43568631 171.85593759 12.1574698 172.5700022 0.375 172.625 C-0.46401855 172.62975342 -1.30303711 172.63450684 -2.16748047 172.6394043 C-9.58382221 172.61979203 -16.69485988 172.49358672 -23.5625 169.5 C-24.738125 169.231875 -25.91375 168.96375 -27.125 168.6875 C-41.91845932 165.04474968 -56.01337382 156.32368927 -64.5625 143.5 C-64.49205581 138.38399105 -61.3016601 135.41473976 -58.0625 131.8125 C-54.43745083 127.91992018 -54.43745083 127.91992018 -51.5625 123.5 C-50.9025 123.5 -50.2425 123.5 -49.5625 123.5 C-48.9025 122.18 -48.2425 120.86 -47.5625 119.5 C-44.29358211 119.80806556 -42.85033836 120.22124003 -40.45703125 122.5390625 C-39.76996094 123.39242187 -39.08289063 124.24578125 -38.375 125.125 C-30.4902181 134.26299227 -19.61515885 141.66245513 -7.24755859 142.69287109 C8.55387775 143.78738407 8.55387775 143.78738407 22.4375 137.5 C22.99566406 137.06171875 23.55382812 136.6234375 24.12890625 136.171875 C28.30183449 131.85113187 28.158514 126.04683117 28.10473633 120.35546875 C27.83249159 115.30978752 26.90686275 112.2217504 23.23828125 108.76171875 C14.90801858 102.92511389 5.54535126 100.77265463 -4.375 99.0625 C-23.7502533 95.67083725 -41.06281648 89.13690555 -54 73.625 C-59.51597904 65.56198248 -59.85581867 56.93287038 -60 47.4375 C-60.02239746 46.51565918 -60.04479492 45.59381836 -60.06787109 44.64404297 C-60.03676974 35.45277565 -57.1030417 27.8330699 -51.5625 20.5 C-50.96888672 19.67242187 -50.96888672 19.67242187 -50.36328125 18.828125 C-44.42272801 11.13434258 -35.73190994 6.33841965 -26.5625 3.5 C-25.82008057 3.24895508 -25.07766113 2.99791016 -24.31274414 2.73925781 C-16.23202018 0.22598329 -8.4121402 -0.05495071 0 0 Z " fill="#2F3F50" transform="translate(369.5625,181.5)"/>
<path d="M0 0 C1.25039062 0.00966797 2.50078125 0.01933594 3.7890625 0.02929688 C5.74199219 0.06700195 5.74199219 0.06700195 7.734375 0.10546875 C9.05179688 0.11900391 10.36921875 0.13253906 11.7265625 0.14648438 C14.97957821 0.18184324 18.231771 0.23119842 21.484375 0.29296875 C21.67990967 0.90422607 21.87544434 1.5154834 22.0769043 2.14526367 C22.33898682 2.95068604 22.60106934 3.7561084 22.87109375 4.5859375 C23.12850342 5.38281982 23.38591309 6.17970215 23.65112305 7.00073242 C25.81119471 12.9429864 29.07085176 16.18307242 34.484375 19.29296875 C40.09916135 21.1645642 45.65242118 20.90362002 51.234375 19.04296875 C54.46610253 17.30280777 57.44561724 15.34710109 60.484375 13.29296875 C62.71376105 15.04268987 64.94289004 16.7927368 67.171875 18.54296875 C67.79771484 19.03410156 68.42355469 19.52523437 69.06835938 20.03125 C70.3024601 21.00043905 71.53539041 21.97112046 72.76708984 22.94335938 C74.27485522 24.12830777 75.79469988 25.29785239 77.31640625 26.46484375 C79.73048004 28.50049516 81.36946702 30.09103127 81.6796875 33.3359375 C81.61458333 35.32161458 81.54947917 37.30729167 81.484375 39.29296875 C77.54608964 41.60960719 73.79202315 43.72655124 69.484375 45.29296875 C69.484375 44.63296875 69.484375 43.97296875 69.484375 43.29296875 C64.46756376 52.36592525 61.45647398 61.96260119 58.38671875 71.81640625 C57.87818359 73.41355469 57.87818359 73.41355469 57.359375 75.04296875 C57.06804687 75.9865625 56.77671875 76.93015625 56.4765625 77.90234375 C55.46680719 80.33529748 54.47577457 81.605342 52.484375 83.29296875 C50.67245618 81.48104993 51.0120237 78.56945576 50.765625 76.10546875 C50.66439457 74.27621545 50.66439457 74.27621545 49.484375 73.29296875 C49.44344563 70.95999442 49.44195777 68.6259165 49.484375 66.29296875 C48.824375 66.29296875 48.164375 66.29296875 47.484375 66.29296875 C46.989375 63.32296875 46.989375 63.32296875 46.484375 60.29296875 C31.634375 59.79796875 31.634375 59.79796875 16.484375 59.29296875 C16.87803594 71.28240365 16.87803594 71.28240365 19.484375 78.29296875 C19.71101486 81.0035815 19.5784618 83.56445167 19.484375 86.29296875 C20.144375 86.29296875 20.804375 86.29296875 21.484375 86.29296875 C21.61489258 86.95079346 21.74541016 87.60861816 21.87988281 88.28637695 C24.28899411 100.41526083 26.70142172 112.54146374 29.31542969 124.62817383 C30.484375 130.08345447 30.484375 130.08345447 30.484375 132.29296875 C10.22644911 134.52612593 -4.01502055 132.41134946 -21.49609375 121.9765625 C-25.68137484 119.64298404 -30.00818329 117.89849555 -34.515625 116.29296875 C-34.01904203 110.63192286 -32.97051816 106.41622404 -30.515625 101.29296875 C-25.52642234 104.91544834 -20.81881066 108.70200911 -16.27734375 112.875 C-14.46262105 114.5042413 -14.46262105 114.5042413 -11.515625 115.29296875 C-12.22847656 114.72449219 -12.94132812 114.15601563 -13.67578125 113.5703125 C-16.64817038 111.17399879 -19.58929304 108.74528977 -22.515625 106.29296875 C-23.66611328 105.33003906 -23.66611328 105.33003906 -24.83984375 104.34765625 C-25.79310547 103.48527344 -25.79310547 103.48527344 -26.765625 102.60546875 C-27.32765625 102.10660156 -27.8896875 101.60773438 -28.46875 101.09375 C-30.08007091 98.32203755 -29.2166601 96.34586356 -28.515625 93.29296875 C-28.37382813 92.31457031 -28.23203125 91.33617187 -28.0859375 90.328125 C-27.20919659 84.47549491 -26.11794929 79.6017103 -23.515625 74.29296875 C-22.96736895 73.02496424 -22.4256583 71.75410901 -21.890625 70.48046875 C-21.13734827 68.73423634 -20.36612526 66.99396927 -19.515625 65.29296875 C-18.855625 65.29296875 -18.195625 65.29296875 -17.515625 65.29296875 C-17.48984375 66.32292969 -17.4640625 67.35289062 -17.4375 68.4140625 C-17.05102162 79.12014714 -15.2962473 88.95940031 -12.515625 99.29296875 C-12.72058594 98.40996094 -12.92554687 97.52695313 -13.13671875 96.6171875 C-18.79366879 71.41804641 -18.35315064 46.25311374 -8.76538086 22.15380859 C-6.80062305 17.03763131 -6.02765243 13.64124753 -7.515625 8.29296875 C-8.175625 7.96296875 -8.835625 7.63296875 -9.515625 7.29296875 C-9.845625 8.28296875 -10.175625 9.27296875 -10.515625 10.29296875 C-10.845625 10.29296875 -11.175625 10.29296875 -11.515625 10.29296875 C-11.0276776 3.82766573 -11.0276776 3.82766573 -8.87597656 1.58081055 C-5.76448611 -0.11686344 -3.53493124 -0.04820361 0 0 Z " fill="#7F3446" transform="translate(68.515625,125.70703125)"/>
<path d="M0 0 C0.66 0 1.32 0 2 0 C2.47985967 1.27057182 2.9588593 2.54146848 3.4375 3.8125 C3.70433594 4.52019531 3.97117187 5.22789062 4.24609375 5.95703125 C6.1059479 10.9969469 5.37027211 13.67092799 3.6875 18.625 C3.21513702 20.08258646 2.74506166 21.54091637 2.27734375 23 C2.05288574 23.69738281 1.82842773 24.39476562 1.59716797 25.11328125 C-0.99639928 33.30751172 -1.53726876 41.43947201 -2 50 C-2.55945313 49.70738281 -3.11890625 49.41476563 -3.6953125 49.11328125 C-6.04979984 47.97594415 -8.42042359 47.08598202 -10.875 46.1875 C-15.40633683 44.41116234 -18.48041085 42.33434761 -22 39 C-21.67 38.34 -21.34 37.68 -21 37 C-20.01 37.33 -19.02 37.66 -18 38 C-19.32 36.68 -20.64 35.36 -22 34 C-20.60795095 31.64352481 -19.21149322 29.28984835 -17.8125 26.9375 C-17.42513672 26.28072266 -17.03777344 25.62394531 -16.63867188 24.94726562 C-13.96383084 20.45972239 -11.06988312 16.22695282 -8 12 C-6.40778574 9.42796157 -4.90656728 6.83182111 -3.4375 4.1875 C-2.963125 3.465625 -2.48875 2.74375 -2 2 C-1.34 2 -0.68 2 0 2 C0 1.34 0 0.68 0 0 Z " fill="#813649" transform="translate(53,136)"/>
<path d="M0 0 C-0.09087891 1.22783203 -0.09087891 1.22783203 -0.18359375 2.48046875 C-0.934894 13.44945238 -1.31057341 24.41836012 -1.60717773 35.40893555 C-1.64399658 36.63394775 -1.68081543 37.85895996 -1.71875 39.12109375 C-1.76418945 40.78289673 -1.76418945 40.78289673 -1.81054688 42.47827148 C-2 45 -2 45 -3 46 C-4.97712807 46.09900199 -6.95790038 46.12970773 -8.9375 46.125 C-10.55978516 46.12886719 -10.55978516 46.12886719 -12.21484375 46.1328125 C-15 46 -15 46 -17 45 C-17.495 43.515 -17.495 43.515 -18 42 C-18.94875 42.20625 -19.8975 42.4125 -20.875 42.625 C-21.90625 42.74875 -22.9375 42.8725 -24 43 C-24.66 42.34 -25.32 41.68 -26 41 C-25.09692284 38.41117881 -24.17835287 35.8297498 -23.25 33.25 C-22.99734375 32.52039063 -22.7446875 31.79078125 -22.484375 31.0390625 C-20.93575588 26.78035992 -19.49938445 24.03279985 -16 21 C-14.76487921 18.86690808 -14.76487921 18.86690808 -14 17 C-15.32 18.32 -16.64 19.64 -18 21 C-16.87339606 15.97361317 -15.81929278 11.38556655 -13 7 C-10.3125 5.625 -10.3125 5.625 -8 5 C-7 6 -7 6 -6 8 C-6.60760482 10.3494053 -7.27129528 12.68529088 -8 15 C-7.40716801 13.05900185 -6.80029748 11.12228755 -6.1875 9.1875 C-5.85105469 8.10855469 -5.51460937 7.02960938 -5.16796875 5.91796875 C-2.79919679 0 -2.79919679 0 0 0 Z " fill="#8B5A66" transform="translate(150,166)"/>
<path d="M0 0 C0.99 0.33 1.98 0.66 3 1 C4.53959956 7.38078486 3.13411553 11.38241476 0.75 17.375 C-7.45572389 39.55340049 -9.16437267 64.49337672 -2.5234375 87.37109375 C-1.99319761 90.03416423 -2.10364638 91.47228281 -3 94 C-7.42507756 81.78678594 -8.26902137 70.88313471 -8 58 C-8.66 58 -9.32 58 -10 58 C-10.17015625 58.53367188 -10.3403125 59.06734375 -10.515625 59.6171875 C-11.88732978 63.83445008 -13.37457492 67.9241927 -15.125 72 C-16.74532303 75.96763511 -17.53916112 79.52915504 -17.82421875 83.796875 C-18 86 -18 86 -18.7578125 88.9921875 C-19.31604789 92.03615322 -19.31604789 92.03615322 -17.48046875 94.2734375 C-16.34544922 95.31371094 -16.34544922 95.31371094 -15.1875 96.375 C-14.36765625 97.13425781 -13.5478125 97.89351563 -12.703125 98.67578125 C-8.56006867 102.23809125 -4.33719256 105.67693179 0 109 C-3.65414064 109 -4.39325819 108.18773013 -7.1875 105.9375 C-8.36699219 104.99003906 -8.36699219 104.99003906 -9.5703125 104.0234375 C-13.10485285 101.07988139 -16.5751135 98.0702661 -20 95 C-22.00993705 98.01490557 -22.72623341 100.2149927 -23.625 103.6875 C-23.88539062 104.68136719 -24.14578125 105.67523438 -24.4140625 106.69921875 C-24.60742188 107.45847656 -24.80078125 108.21773438 -25 109 C-24.29617187 109.10699219 -23.59234375 109.21398437 -22.8671875 109.32421875 C-19.64209965 110.08435526 -17.07144602 111.30101146 -14.125 112.8125 C-12.55878906 113.61494141 -12.55878906 113.61494141 -10.9609375 114.43359375 C-7.59179143 116.21595202 -4.28122727 118.06109298 -1 120 C-1.33 120.66 -1.66 121.32 -2 122 C-3.65 122 -5.3 122 -7 122 C-7 121.34 -7 120.68 -7 120 C-9.64 119.01 -12.28 118.02 -15 117 C-15 116.34 -15 115.68 -15 115 C-16.051875 114.71125 -17.10375 114.4225 -18.1875 114.125 C-21.22818711 113.22774807 -24.08712344 112.23576581 -27 111 C-27.34949675 105.64104984 -26.38538935 101.53853602 -24.734375 96.4453125 C-23.78848462 93.2956988 -23.35478989 90.26406695 -23 87 C-22.01 87 -21.02 87 -20 87 C-20.03480469 86.19175781 -20.06960937 85.38351563 -20.10546875 84.55078125 C-20.13253906 83.48214844 -20.15960938 82.41351563 -20.1875 81.3125 C-20.22230469 80.25675781 -20.25710937 79.20101562 -20.29296875 78.11328125 C-19.96090198 74.58451833 -18.91801351 72.93148238 -17 70 C-16.44356882 68.35131503 -15.94179571 66.68303129 -15.5 65 C-14.44736298 61.26842961 -13.24585277 58.2083611 -11 55 C-11.66 55 -12.32 55 -13 55 C-13 54.34 -13 53.68 -13 53 C-14.03125 52.731875 -15.0625 52.46375 -16.125 52.1875 C-19.65847303 51.16767648 -22.82449273 49.8901829 -26 48 C-26.495 46.515 -26.495 46.515 -27 45 C-27.99 45 -28.98 45 -30 45 C-31.125 43.375 -31.125 43.375 -32 41 C-31.125 37.75 -31.125 37.75 -30 35 C-29.34 35 -28.68 35 -28 35 C-27.731875 34.030625 -27.46375 33.06125 -27.1875 32.0625 C-26.795625 31.051875 -26.40375 30.04125 -26 29 C-25.01 28.67 -24.02 28.34 -23 28 C-24.33333333 31.33333333 -25.66666667 34.66666667 -27 38 C-25.35 39.65 -23.7 41.3 -22 43 C-23.65 42.34 -25.3 41.68 -27 41 C-23.17378818 45.61784185 -19.01890474 47.5756113 -13.5234375 49.88671875 C-11 51 -11 51 -8 53 C-8.04640625 52.18660156 -8.0928125 51.37320313 -8.140625 50.53515625 C-8.52049711 38.47421661 -5.95165527 27.61309713 -2.0625 16.25 C-0.90089171 12.63932171 -0.90089171 12.63932171 -2.3125 9 C-2.869375 8.34 -3.42625 7.68 -4 7 C-4 6.34 -4 5.68 -4 5 C-2.68 5 -1.36 5 0 5 C-0.33 4.01 -0.66 3.02 -1 2 C-0.67 1.34 -0.34 0.68 0 0 Z " fill="#CFABB1" transform="translate(59,133)"/>
<path d="M0 0 C2.875 1.75 2.875 1.75 6 4 C13.83095985 9.2206399 20.82971907 9.27104279 30 9 C29.67 9.99 29.34 10.98 29 12 C30.32 12.33 31.64 12.66 33 13 C31.84734015 16.58605288 29.69430254 18.49302802 26.38671875 20.2265625 C20.38241998 22.17230908 13.29365389 22.43180346 7.45703125 19.89453125 C2.52461882 16.44276796 -1.09322384 11.96811447 -2.45703125 6 C-2.70767972 4.3423781 -2.86359944 2.67090691 -3 1 C-2.01 0.67 -1.02 0.34 0 0 Z " fill="#C6A3AA" transform="translate(94,124)"/>
<path d="M0 0 C5.75 1.625 5.75 1.625 8 5 C8.24291992 6.98950195 8.24291992 6.98950195 8.23046875 9.23828125 C8.22853516 10.05876953 8.22660156 10.87925781 8.22460938 11.72460938 C8.20624023 13.00561523 8.20624023 13.00561523 8.1875 14.3125 C8.18685547 15.15490234 8.18621094 15.99730469 8.18554688 16.86523438 C8.16146922 20.2869369 8.08257051 23.51287506 7.50927734 26.89501953 C6.98947633 30.06416109 6.79372497 33.10807795 6.68359375 36.31640625 C6.64169922 37.49267578 6.59980469 38.66894531 6.55664062 39.88085938 C6.51732422 41.09580078 6.47800781 42.31074219 6.4375 43.5625 C6.39431641 44.78130859 6.35113281 46.00011719 6.30664062 47.25585938 C6.06851132 53.53865051 6.06851132 53.53865051 6.05102539 59.82397461 C6 62 6 62 5 63 C2.91864863 63.0999519 0.83374472 63.12967207 -1.25 63.125 C-2.95929688 63.12886719 -2.95929688 63.12886719 -4.703125 63.1328125 C-7.60023681 63.0161042 -10.17113794 62.56783727 -13 62 C-13.495 62.495 -13.495 62.495 -14 63 C-15.99958364 63.04080783 -18.00045254 63.04254356 -20 63 C-20.66 64.32 -21.32 65.64 -22 67 C-22.28395483 65.69442507 -22.52487277 64.3794943 -22.75 63.0625 C-22.88921875 62.33160156 -23.0284375 61.60070312 -23.171875 60.84765625 C-22.9563756 57.27722296 -21.69568156 54.85006387 -20.17626953 51.64282227 C-17.42998292 45.47251248 -15.5355635 38.92122177 -13.44335938 32.50585938 C-11.27185055 26.04402117 -8.89132476 20.60707641 -5 15 C-4 17 -4 17 -4 19 C-3.44570312 18.6390625 -2.89140625 18.278125 -2.3203125 17.90625 C-1.59585938 17.4421875 -0.87140625 16.978125 -0.125 16.5 C0.59429687 16.0359375 1.31359375 15.571875 2.0546875 15.09375 C4 14 4 14 6 14 C5.66290194 7.48277089 4.55774263 4.67460782 0 0 Z M3.57421875 16.11328125 C1.48245221 18.62028681 0.78146777 21.08012059 -0.1875 24.1875 C-0.53167969 25.27417969 -0.87585938 26.36085937 -1.23046875 27.48046875 C-1.61138672 28.72763672 -1.61138672 28.72763672 -2 30 C-1.34 27.03 -0.68 24.06 0 21 C-0.66 21 -1.32 21 -2 21 C-2.99 21 -3.98 21 -5 21 C-9.37829205 24.14689741 -10.94118558 28.87415073 -12 34 C-11.67 34.66 -11.34 35.32 -11 36 C-9.35 33.69 -7.7 31.38 -6 29 C-6.95198711 30.64951226 -7.91179145 32.29451508 -8.875 33.9375 C-9.40867188 34.85402344 -9.94234375 35.77054688 -10.4921875 36.71484375 C-12 39 -12 39 -14 40 C-14.83754996 41.72494642 -14.83754996 41.72494642 -15.5078125 43.81640625 C-15.77207031 44.58017578 -16.03632812 45.34394531 -16.30859375 46.13085938 C-16.57800781 46.93330078 -16.84742187 47.73574219 -17.125 48.5625 C-17.40214844 49.36880859 -17.67929688 50.17511719 -17.96484375 51.00585938 C-18.6497948 53.00166501 -19.32574416 55.00055579 -20 57 C-16.71303767 57.79953138 -15.28976808 58.09658936 -12 57 C-11.67 57.99 -11.34 58.98 -11 60 C-8.23547967 61.38226016 -5.9538637 61.09525387 -2.875 61.0625 C-1.77929688 61.05347656 -0.68359375 61.04445312 0.4453125 61.03515625 C1.28835937 61.02355469 2.13140625 61.01195312 3 61 C3.96065434 56.91430207 4.18025366 53.01947317 4.28125 48.828125 C4.29965942 48.14627136 4.31806885 47.46441772 4.33703613 46.76190186 C4.39543662 44.59135053 4.44833915 42.42072149 4.5 40.25 C4.91259264 23.08306138 4.91259264 23.08306138 6 15 C4.82987544 14.89742758 4.82987544 14.89742758 3.57421875 16.11328125 Z " fill="#D1BEBD" transform="translate(144,151)"/>
<path d="M0 0 C0.66 0 1.32 0 2 0 C2.12528076 0.54825439 2.25056152 1.09650879 2.37963867 1.66137695 C5.87028909 16.78981688 5.87028909 16.78981688 12 31 C12.49757813 31.95390625 12.99515625 32.9078125 13.5078125 33.890625 C16.10484334 38.77147693 18.82113023 43.47622379 22 48 C21.01 48 20.02 48 19 48 C17.10044543 45.26770231 15.53810923 42.40716786 13.9140625 39.50390625 C12.21259287 36.77787178 12.21259287 36.77787178 9.2734375 36.15234375 C8.52320312 36.10207031 7.77296875 36.05179688 7 36 C7 36.66 7 37.32 7 38 C5.02 37.67 3.04 37.34 1 37 C0.79503906 35.87980469 0.59007812 34.75960937 0.37890625 33.60546875 C0.10688311 32.13279176 -0.16525849 30.66013664 -0.4375 29.1875 C-0.57220703 28.44951172 -0.70691406 27.71152344 -0.84570312 26.95117188 C-1.41419737 23.88684924 -2.01309651 20.96071047 -3 18 C-3.11659598 16.50323294 -3.17498959 15.00124939 -3.1875 13.5 C-3.20167969 12.7265625 -3.21585938 11.953125 -3.23046875 11.15625 C-3 9 -3 9 -1 6 C-0.60986284 4.0103005 -0.26797351 2.00980131 0 0 Z " fill="#7E3548" transform="translate(56,193)"/>
<path d="M0 0 C-0.06058594 0.86496094 -0.12117187 1.72992188 -0.18359375 2.62109375 C-1.03405985 15.40425351 -1.52375782 28.19812014 -2 41 C-3.60407328 41.02708567 -5.2082785 41.04643483 -6.8125 41.0625 C-7.70582031 41.07410156 -8.59914062 41.08570313 -9.51953125 41.09765625 C-12 41 -12 41 -15 40 C-13.18181818 26.18181818 -13.18181818 26.18181818 -9 22 C-8.42700873 20.14055297 -8.42700873 20.14055297 -8.0625 18 C-7.33845253 14.50420831 -6.5301507 11.06217593 -5.5625 7.625 C-5.33691406 6.81289062 -5.11132812 6.00078125 -4.87890625 5.1640625 C-4.02203841 3.05426347 -2.64065073 0 0 0 Z " fill="#7E3849" transform="translate(150,166)"/>
<path d="M0 0 C0.66 0 1.32 0 2 0 C1.26480059 3.02482043 0.44109043 6.01370301 -0.4375 9 C-0.68371094 9.845625 -0.92992187 10.69125 -1.18359375 11.5625 C-2 14 -2 14 -3.0625 16.0390625 C-4.11172378 18.2336889 -4.36327278 19.95884012 -4.5625 22.375 C-4.79362665 25.04474866 -5.10271537 27.40457279 -5.765625 30.015625 C-6.31293035 33.03954772 -6.31293035 33.03954772 -4.48046875 35.2734375 C-3.72378906 35.96695313 -2.96710937 36.66046875 -2.1875 37.375 C-1.36765625 38.13425781 -0.5478125 38.89351562 0.296875 39.67578125 C4.43993133 43.23809125 8.66280744 46.67693179 13 50 C9.34585936 50 8.60674181 49.18773013 5.8125 46.9375 C5.02617188 46.30585938 4.23984375 45.67421875 3.4296875 45.0234375 C-0.10485285 42.07988139 -3.5751135 39.0702661 -7 36 C-9.00993705 39.01490557 -9.72623341 41.2149927 -10.625 44.6875 C-10.88539062 45.68136719 -11.14578125 46.67523438 -11.4140625 47.69921875 C-11.60742188 48.45847656 -11.80078125 49.21773437 -12 50 C-11.29617187 50.10699219 -10.59234375 50.21398437 -9.8671875 50.32421875 C-6.64209965 51.08435526 -4.07144602 52.30101146 -1.125 53.8125 C-0.08085938 54.34746094 0.96328125 54.88242188 2.0390625 55.43359375 C5.40820857 57.21595202 8.71877273 59.06109298 12 61 C11.67 61.66 11.34 62.32 11 63 C9.35 63 7.7 63 6 63 C6 62.34 6 61.68 6 61 C3.36 60.01 0.72 59.02 -2 58 C-2 57.34 -2 56.68 -2 56 C-3.051875 55.71125 -4.10375 55.4225 -5.1875 55.125 C-8.22818711 54.22774807 -11.08712344 53.23576581 -14 52 C-14.34949675 46.64104984 -13.38538935 42.53853602 -11.734375 37.4453125 C-10.78848462 34.2956988 -10.35478989 31.26406695 -10 28 C-9.01 28 -8.02 28 -7 28 C-7.03480469 27.19175781 -7.06960937 26.38351563 -7.10546875 25.55078125 C-7.13253906 24.48214844 -7.15960938 23.41351563 -7.1875 22.3125 C-7.22230469 21.25675781 -7.25710937 20.20101562 -7.29296875 19.11328125 C-6.96054407 15.58071498 -5.91838058 13.93648919 -4 11 C-3.40076213 9.26886836 -2.85656023 7.5174848 -2.375 5.75 C-1.09387755 1.09387755 -1.09387755 1.09387755 0 0 Z " fill="#D1BFBC" transform="translate(46,192)"/>
<path d="M0 0 C2 3 2 3 3.375 6.375 C5.1619363 10.36124252 6.97804295 13.98902148 11 16 C17.60385514 16.67817368 22.66985848 16.34756786 28.34375 12.77734375 C30 12 30 12 33 13 C31.84734015 16.58605288 29.69430254 18.49302802 26.38671875 20.2265625 C20.38241998 22.17230908 13.29365389 22.43180346 7.45703125 19.89453125 C2.52461882 16.44276796 -1.09322384 11.96811447 -2.45703125 6 C-2.70767972 4.3423781 -2.86359944 2.67090691 -3 1 C-2.01 0.67 -1.02 0.34 0 0 Z " fill="#7D3B4D" transform="translate(94,124)"/>
<path d="M0 0 C2.47121763 0.97809187 4.51105251 2.28435262 6.73046875 3.74609375 C10.90909236 6.3437841 14.47741518 7.67062099 19.328125 8.38671875 C19.89402344 8.5259375 20.45992187 8.66515625 21.04296875 8.80859375 C21.53796875 9.79859375 21.53796875 9.79859375 22.04296875 10.80859375 C16.43584148 12.25527249 12.27124388 11.11230248 7.04296875 8.80859375 C5.05673628 7.326443 3.33578121 5.79438753 1.61328125 4.015625 C-0.15549261 2.40231056 -0.15549261 2.40231056 -3.95703125 2.80859375 C-1.16473464 11.85053544 -1.16473464 11.85053544 5.04296875 18.80859375 C5.61273438 19.33839844 6.1825 19.86820313 6.76953125 20.4140625 C9.90539934 22.33761045 12.26483161 22.17215911 15.91796875 22.12109375 C17.70847656 22.11529297 17.70847656 22.11529297 19.53515625 22.109375 C23.0084817 21.81155088 25.79995027 21.05323846 29.04296875 19.80859375 C25.69921077 23.51061151 23.62972181 24.54024012 18.74609375 25.046875 C11.90256907 25.25392431 6.67252917 24.17349873 1.54296875 19.41796875 C-2.81031923 14.49460734 -4.95703125 10.37222425 -4.95703125 3.80859375 C-13.86703125 3.80859375 -22.77703125 3.80859375 -31.95703125 3.80859375 C-31.95703125 3.47859375 -31.95703125 3.14859375 -31.95703125 2.80859375 C-30.80702637 2.77886475 -30.80702637 2.77886475 -29.63378906 2.74853516 C-26.15785906 2.65323929 -22.68252619 2.54357777 -19.20703125 2.43359375 C-17.3971875 2.3871875 -17.3971875 2.3871875 -15.55078125 2.33984375 C-14.390625 2.30117187 -13.23046875 2.2625 -12.03515625 2.22265625 C-10.9668457 2.19123535 -9.89853516 2.15981445 -8.79785156 2.12744141 C-5.58652984 1.76700946 -3.09783885 -0.30298224 0 0 Z " fill="#CAB6B6" transform="translate(94.95703125,122.19140625)"/>
<path d="M0 0 C0.66 0 1.32 0 2 0 C2.33 6.27 2.66 12.54 3 19 C1.02 18.01 -0.96 17.02 -3 16 C-2.83242188 16.89203125 -2.66484375 17.7840625 -2.4921875 18.703125 C-2.28851563 19.87359375 -2.08484375 21.0440625 -1.875 22.25 C-1.66617188 23.41015625 -1.45734375 24.5703125 -1.2421875 25.765625 C-0.99733856 29.03554316 -1.21220459 30.32492834 -3 33 C-2.01 33.33 -1.02 33.66 0 34 C-0.66 34.99 -1.32 35.98 -2 37 C-2.495 35.515 -2.495 35.515 -3 34 C-3.66 34 -4.32 34 -5 34 C-5.66 31.69 -6.32 29.38 -7 27 C-7.33 27 -7.66 27 -8 27 C-8.51480235 20.05016822 -6.84406667 15.29173023 -4 9 C-3.43558011 7.66747825 -2.87282842 6.33424739 -2.3125 5 C-1.57648029 3.31766924 -0.82121396 1.64242791 0 0 Z " fill="#854153" transform="translate(49,191)"/>
<path d="M0 0 C0.66 0 1.32 0 2 0 C2.33 1.32 2.66 2.64 3 4 C3.99 3.34 4.98 2.68 6 2 C8 1 8 1 11 1.6875 C14 3 14 3 15.375 5.125 C15.58125 5.74375 15.7875 6.3625 16 7 C16.66 7 17.32 7 18 7 C18.33 6.01 18.66 5.02 19 4 C19.99 4 20.98 4 22 4 C22 3.34 22 2.68 22 2 C22.66 2 23.32 2 24 2 C24 3.98 24 5.96 24 8 C24.66 7.67 25.32 7.34 26 7 C26.65555119 4.47266765 26.65555119 4.47266765 27 2 C27.33 2 27.66 2 28 2 C28 4.31 28 6.62 28 9 C27.360625 9.12375 26.72125 9.2475 26.0625 9.375 C25.381875 9.58125 24.70125 9.7875 24 10 C23.67 10.66 23.34 11.32 23 12 C22.43796875 11.83628906 21.8759375 11.67257812 21.296875 11.50390625 C18.86940944 10.97135003 16.73110319 10.90101319 14.25 10.9375 C13.05117188 10.95103516 13.05117188 10.95103516 11.828125 10.96484375 C11.22484375 10.97644531 10.6215625 10.98804688 10 11 C9.34 9.68 8.68 8.36 8 7 C7.34 8.32 6.68 9.64 6 11 C4.02 10.34 2.04 9.68 0 9 C0 6.03 0 3.06 0 0 Z " fill="#BBB2A2" transform="translate(381,370)"/>
<path d="M0 0 C0.66 0 1.32 0 2 0 C1.61269558 7.61698692 0.09616394 15.46170507 -4 22 C-7.05078125 23 -7.05078125 23 -10 23 C-10.66 22.34 -11.32 21.68 -12 21 C-11.09879985 18.38952355 -10.18007236 15.78767826 -9.25 13.1875 C-8.99734375 12.44951172 -8.7446875 11.71152344 -8.484375 10.95117188 C-5.98613363 4.0497801 -5.98613363 4.0497801 -2 2 C-1.34 2 -0.68 2 0 2 C0 1.34 0 0.68 0 0 Z " fill="#7E3649" transform="translate(136,186)"/>
<path d="M0 0 C0.66 1.32 1.32 2.64 2 4 C1.01 5.485 1.01 5.485 0 7 C0.99 7 1.98 7 3 7 C2.835 7.5775 2.67 8.155 2.5 8.75 C1.85537969 11.26664369 1.85537969 11.26664369 2 15 C4.26557485 18.39836227 5.30722534 18.64898488 9 20 C9.99 20.66 10.98 21.32 12 22 C11.67 19.36 11.34 16.72 11 14 C11.99 13.67 12.98 13.34 14 13 C14 17.29 14 21.58 14 26 C12.68 25.34 11.36 24.68 10 24 C8.3782508 23.38716078 6.75303762 22.78343277 5.125 22.1875 C0.59366317 20.41116234 -2.48041085 18.33434761 -6 15 C-5.67 14.34 -5.34 13.68 -5 13 C-4.01 13.33 -3.02 13.66 -2 14 C-3.32 12.68 -4.64 11.36 -6 10 C-4.02 6.7 -2.04 3.4 0 0 Z " fill="#804051" transform="translate(37,160)"/>
<path d="M0 0 C1 2 1 2 1 5 C0.401875 5.680625 -0.19625 6.36125 -0.8125 7.0625 C-3.78312205 11.05162104 -4.77725574 15.22944475 -6 20 C-4.35 17.36 -2.7 14.72 -1 12 C-0.67 12.66 -0.34 13.32 0 14 C-1.109375 16.34765625 -1.109375 16.34765625 -2.75 19.0625 C-3.28109375 19.96097656 -3.8121875 20.85945313 -4.359375 21.78515625 C-6 24 -6 24 -9 25 C-9.69986197 26.87178088 -9.69986197 26.87178088 -10 29.125 C-10.81597675 33.44691075 -12.13845687 37.02306695 -14 41 C-10.94736336 41.98120464 -9.05263664 41.98120464 -6 41 C-6.33 42.32 -6.66 43.64 -7 45 C-10.3125 45.6875 -10.3125 45.6875 -14 46 C-15.73046875 44.51953125 -15.73046875 44.51953125 -17 43 C-16.3140831 40.94006486 -15.62784807 38.88023535 -14.94042969 36.82080078 C-14.28808169 34.86409549 -13.63783717 32.90668816 -12.98925781 30.94873047 C-11.87853078 27.60797429 -10.75257384 24.27260437 -9.625 20.9375 C-9.25117188 19.80505859 -8.87734375 18.67261719 -8.4921875 17.50585938 C-6.29919851 11.05832154 -3.88212427 5.60370235 0 0 Z " fill="#BF98A1" transform="translate(139,166)"/>
<path d="M0 0 C0.66 0 1.32 0 2 0 C2.66 2.64 3.32 5.28 4 8 C3.01 8 2.02 8 1 8 C0.9175 8.78375 0.835 9.5675 0.75 10.375 C0 13 0 13 -2 14.125 C-2.66 14.41375 -3.32 14.7025 -4 15 C-4.33 15.99 -4.66 16.98 -5 18 C-5.66 18 -6.32 18 -7 18 C-7.20625 18.639375 -7.4125 19.27875 -7.625 19.9375 C-9 22 -9 22 -12.0859375 22.62890625 C-13.04757813 22.75136719 -14.00921875 22.87382812 -15 23 C-14.52949219 22.26394531 -14.05898438 21.52789062 -13.57421875 20.76953125 C-12.95160156 19.79371094 -12.32898437 18.81789062 -11.6875 17.8125 C-11.07261719 16.84957031 -10.45773438 15.88664063 -9.82421875 14.89453125 C-7.60430238 11.37213718 -5.45951708 7.82713074 -3.4375 4.1875 C-2.963125 3.465625 -2.48875 2.74375 -2 2 C-1.34 2 -0.68 2 0 2 C0 1.34 0 0.68 0 0 Z " fill="#864556" transform="translate(53,136)"/>
<path d="M0 0 C2.27004272 3.40506408 2.93956982 6.58180609 3.8125 10.5 C5.46041491 17.44322521 7.68363322 23.65398403 11 30 C11.49886719 30.9590625 11.99773437 31.918125 12.51171875 32.90625 C15.11192271 37.77917631 17.82420768 42.48060323 21 47 C20.01 47 19.02 47 18 47 C16.28125 44.62890625 16.28125 44.62890625 14.5 41.5625 C12.19335613 37.16496008 12.19335613 37.16496008 8 35 C0.83801089 24.48016436 0.62147329 12.26592017 0 0 Z " fill="#AD7B87" transform="translate(57,194)"/>
<path d="M0 0 C1.10898036 3.29304009 0.90467333 5.07766059 -0.328125 8.30078125 C-0.63363281 9.11353516 -0.93914062 9.92628906 -1.25390625 10.76367188 C-1.58261719 11.60478516 -1.91132813 12.44589844 -2.25 13.3125 C-2.71986328 14.55676758 -2.71986328 14.55676758 -3.19921875 15.82617188 C-5.01680188 20.60392669 -6.95220772 25.31662321 -9 30 C-9.66 29.67 -10.32 29.34 -11 29 C-11.37890625 27.1875 -11.37890625 27.1875 -11.5625 25 C-11.62665408 22.21067942 -11.62665408 22.21067942 -13 20 C-13.04092937 17.66702567 -13.04241723 15.33294775 -13 13 C-7.25 12.875 -7.25 12.875 -5 14 C-4.67 12.02 -4.34 10.04 -4 8 C-3.34 8 -2.68 8 -2 8 C-2.061875 6.8553125 -2.061875 6.8553125 -2.125 5.6875 C-2 3 -2 3 0 0 Z " fill="#7E384A" transform="translate(131,179)"/>
<path d="M0 0 C1.12614593 1.68921889 2.23784616 3.38900743 3.296875 5.12109375 C6.87980653 10.83259482 10.05757904 14.97154236 16.875 16.75 C17.57625 16.8325 18.2775 16.915 19 17 C19 17.33 19 17.66 19 18 C12.73 18 6.46 18 0 18 C0 12.06 0 6.12 0 0 Z " fill="#0F0F0F" transform="translate(0,482)"/>
<path d="M0 0 C5.94 0 11.88 0 18 0 C12 4 12 4 8 4 C7.7525 4.515625 7.505 5.03125 7.25 5.5625 C5.05360369 9.8454728 2.67128346 13.99307481 0 18 C0 12.06 0 6.12 0 0 Z " fill="#161616" transform="translate(0,0)"/>
<path d="M0 0 C0.66 0 1.32 0 2 0 C2 4.95 2 9.9 2 15 C-3.94 15 -9.88 15 -16 15 C-14.68 14.34 -13.36 13.68 -12 13 C-10.1588004 11.71815218 -8.3758454 10.37563866 -6.5859375 9.0234375 C-5 8 -5 8 -3 8 C-2.87625 7.4225 -2.7525 6.845 -2.625 6.25 C-1.99351176 3.97664233 -1.11141809 2.0746471 0 0 Z " fill="#121212" transform="translate(498,485)"/>
<path d="M0 0 C2.475 0.99 2.475 0.99 5 2 C5 3.98 5 5.96 5 8 C2.69 7.67 0.38 7.34 -2 7 C-2 7.99 -2 8.98 -2 10 C-5.8131431 9.32709239 -9.43702894 8.53855569 -13 7 C-14 5 -14 5 -14 3 C-13.34 2.34 -12.68 1.68 -12 1 C-10 1.125 -10 1.125 -8 2 C-6.75 4.0625 -6.75 4.0625 -6 6 C-5.195625 5.195625 -4.39125 4.39125 -3.5625 3.5625 C-2.375 2.375 -1.1875 1.1875 0 0 Z " fill="#B4AB9C" transform="translate(315,371)"/>
<path d="M0 0 C1.05904289 0.00212242 1.05904289 0.00212242 2.13948059 0.00428772 C4.39120751 0.00987861 6.64283446 0.02242937 8.89453125 0.03515625 C10.4225246 0.04017243 11.95051952 0.04473513 13.47851562 0.04882812 C17.2213926 0.05984505 20.96419498 0.07710338 24.70703125 0.09765625 C24.70703125 1.08765625 24.70703125 2.07765625 24.70703125 3.09765625 C9.85703125 2.60265625 9.85703125 2.60265625 -5.29296875 2.09765625 C-5.29296875 6.38765625 -5.29296875 10.67765625 -5.29296875 15.09765625 C-7.86442932 12.52619568 -8.09414872 10.49261455 -8.91796875 6.97265625 C-9.17835937 5.87695312 -9.43875 4.78125 -9.70703125 3.65234375 C-9.90039062 2.80929688 -10.09375 1.96625 -10.29296875 1.09765625 C-6.78672445 -0.07109185 -3.64518215 -0.02748642 0 0 Z " fill="#5A384B" transform="translate(90.29296875,182.90234375)"/>
<path d="M0 0 C0.66 0 1.32 0 2 0 C0.66666667 3.33333333 -0.66666667 6.66666667 -2 10 C-0.35 11.65 1.3 13.3 3 15 C0.525 14.01 0.525 14.01 -2 13 C1.83133595 17.62402614 5.94850601 19.53240382 11.4765625 21.7890625 C13.88264526 22.94368426 15.27518985 23.99736808 17 26 C15.68 26 14.36 26 13 26 C12.67 25.34 12.34 24.68 12 24 C10.948125 23.855625 9.89625 23.71125 8.8125 23.5625 C4.90788536 22.98640932 2.34197178 22.06883967 -1 20 C-1.33 19.01 -1.66 18.02 -2 17 C-2.99 17 -3.98 17 -5 17 C-6.125 15.375 -6.125 15.375 -7 13 C-6.125 9.75 -6.125 9.75 -5 7 C-4.34 7 -3.68 7 -3 7 C-2.690625 6.030625 -2.38125 5.06125 -2.0625 4.0625 C-1 1 -1 1 0 0 Z " fill="#CDBABA" transform="translate(34,161)"/>
<path d="M0 0 C4.62 0 9.24 0 14 0 C14 4.95 14 9.9 14 15 C9 10 9 10 7.5625 7.9375 C5.94435824 5.73310817 5.94435824 5.73310817 2.8125 3.875 C1.884375 3.25625 0.95625 2.6375 0 2 C0 1.34 0 0.68 0 0 Z " fill="#1A1A1A" transform="translate(486,0)"/>
<path d="M0 0 C1.13087014 3.39261042 0.86514295 4.16517757 -0.21484375 7.44921875 C-0.62573242 8.72055664 -0.62573242 8.72055664 -1.04492188 10.01757812 C-1.48674805 11.33918945 -1.48674805 11.33918945 -1.9375 12.6875 C-2.22818359 13.58017578 -2.51886719 14.47285156 -2.81835938 15.39257812 C-3.53766052 17.59764886 -4.267807 19.79917641 -5 22 C-0.71 22.66 3.58 23.32 8 24 C7.67 25.32 7.34 26.64 7 28 C5.04174127 28.02694851 3.08337774 28.04637218 1.125 28.0625 C0.03445312 28.07410156 -1.05609375 28.08570313 -2.1796875 28.09765625 C-5 28 -5 28 -7 27 C-9.22932798 20.90183826 -6.37859329 15.77550197 -4.0625 10.125 C-3.67642578 9.15046875 -3.29035156 8.1759375 -2.89257812 7.171875 C-1.94118699 4.77577882 -0.97677477 2.38583514 0 0 Z " fill="#9C6874" transform="translate(140,184)"/>
<path d="M0 0 C1.88428711 0.03383789 1.88428711 0.03383789 3.80664062 0.06835938 C6.89316415 0.12703853 9.97720486 0.20909473 13.0625 0.3125 C13.0625 0.9725 13.0625 1.6325 13.0625 2.3125 C11.92035034 2.31866333 11.92035034 2.31866333 10.75512695 2.32495117 C7.29430334 2.3579114 3.83523429 2.42856054 0.375 2.5 C-1.42227539 2.50870117 -1.42227539 2.50870117 -3.25585938 2.51757812 C-10.30991823 2.4201184 -10.30991823 2.4201184 -16.21875 5.6875 C-17.95415858 8.3379422 -18.66835102 10.17242859 -18.9375 13.3125 C-18.2775 13.3125 -17.6175 13.3125 -16.9375 13.3125 C-16.9375 13.9725 -16.9375 14.6325 -16.9375 15.3125 C-18.2575 15.3125 -19.5775 15.3125 -20.9375 15.3125 C-20.9375 14.6525 -20.9375 13.9925 -20.9375 13.3125 C-21.5975 13.3125 -22.2575 13.3125 -22.9375 13.3125 C-22.9375 13.9725 -22.9375 14.6325 -22.9375 15.3125 C-23.9275 15.6425 -24.9175 15.9725 -25.9375 16.3125 C-25.03862601 10.69453758 -22.13529536 6.47828677 -18.16015625 2.609375 C-12.72405496 -1.12546466 -6.32121178 -0.21545819 0 0 Z " fill="#D3CAC4" transform="translate(75.9375,122.6875)"/>
<path d="M0 0 C0.515625 0.268125 1.03125 0.53625 1.5625 0.8125 C2.366875 1.204375 3.17125 1.59625 4 2 C4.94875 2.474375 5.8975 2.94875 6.875 3.4375 C12.60931853 5.90766798 18.90337898 6.80773431 25 8 C23.34445853 10.04414123 22.53419508 10.93726883 19.87109375 11.25 C13.37043092 10.58219515 7.28163999 9.02217199 2 5 C0.71875 2.328125 0.71875 2.328125 0 0 Z " fill="#804B59" transform="translate(97,127)"/>
<path d="M0 0 C0.66 0 1.32 0 2 0 C2 0.66 2 1.32 2 2 C5.34252724 2.07427838 7.8035914 2.06546953 11 1 C11.99 1.33 12.98 1.66 14 2 C16.39254576 2.22560676 18.78928123 2.40848595 21.1875 2.5625 C23.09595703 2.68818359 23.09595703 2.68818359 25.04296875 2.81640625 C26.01878906 2.87699219 26.99460938 2.93757812 28 3 C28.33 2.01 28.66 1.02 29 0 C28.67 1.65 28.34 3.3 28 5 C25.93757383 5.02717692 23.87504297 5.0464758 21.8125 5.0625 C20.66394531 5.07410156 19.51539063 5.08570313 18.33203125 5.09765625 C15.40650456 5.01191397 12.85228456 4.57879998 10 4 C9.67 4.33 9.34 4.66 9 5 C7.00041636 5.04080783 4.99954746 5.04254356 3 5 C2.34 6.32 1.68 7.64 1 9 C0.67 6.03 0.34 3.06 0 0 Z " fill="#D7CBC6" transform="translate(121,209)"/>
<path d="M0 0 C9.57 0 19.14 0 29 0 C29 0.33 29 0.66 29 1 C19.76 1 10.52 1 1 1 C1.33 1.99 1.66 2.98 2 4 C2.45661133 7.08646143 2.59722591 9.92778382 2 13 C0.19669668 15.28698818 -1.51050334 16.39220008 -4 18 C-2.98954415 11.93726491 -1.49071198 5.96284794 0 0 Z " fill="#565D65" transform="translate(173,184)"/>
<path d="M0 0 C0.28359375 0.5775 0.5671875 1.155 0.859375 1.75 C5.24174532 10.50462947 5.24174532 10.50462947 13 16 C20.05830528 16.65463473 26.33256591 16.54094287 33 14 C29.65624202 17.70201776 27.58675306 18.73164637 22.703125 19.23828125 C16.55454644 19.42430512 12.04805418 18.63955692 7 15 C3.04016492 11.04016492 0.80767861 7.22218266 -1 2 C-0.67 1.34 -0.34 0.68 0 0 Z " fill="#BA8491" transform="translate(91,128)"/>
<path d="M0 0 C2 2 2 2 2.125 5.125 C2.08375 6.07375 2.0425 7.0225 2 8 C2.66 8 3.32 8 4 8 C7 13.75 7 13.75 7 16 C2.88449786 14.41711456 -0.51264507 11.62418725 -3 8 C-3 4.18399457 -2.7049349 2.7049349 0 0 Z " fill="#783948" transform="translate(42,217)"/>
<path d="M0 0 C9.01656806 1.12153711 17.3915295 3.09763515 26 6 C26 6.33 26 6.66 26 7 C24.23086176 7.22226864 22.45955629 7.42733873 20.6875 7.625 C19.70136719 7.74101562 18.71523438 7.85703125 17.69921875 7.9765625 C15 8 15 8 12 6 C10.68 6 9.36 6 8 6 C8 5.34 8 4.68 8 4 C7.05125 3.71125 6.1025 3.4225 5.125 3.125 C2 2 2 2 0 0 Z " fill="#DCD7CE" transform="translate(360,279)"/>
<path d="M0 0 C1.25039062 0.00966797 2.50078125 0.01933594 3.7890625 0.02929688 C5.74199219 0.06700195 5.74199219 0.06700195 7.734375 0.10546875 C9.05179688 0.11900391 10.36921875 0.13253906 11.7265625 0.14648438 C14.97957821 0.18184324 18.231771 0.23119842 21.484375 0.29296875 C21.154375 1.61296875 20.824375 2.93296875 20.484375 4.29296875 C19.824375 3.63296875 19.164375 2.97296875 18.484375 2.29296875 C16.20627978 1.99887763 16.20627978 1.99887763 13.58203125 2.0625 C12.12313477 2.06540039 12.12313477 2.06540039 10.63476562 2.06835938 C9.10625977 2.08672852 9.10625977 2.08672852 7.546875 2.10546875 C6.53173828 2.10611328 5.51660156 2.10675781 4.47070312 2.10742188 C-1.1125774 2.08600028 -1.1125774 2.08600028 -6.515625 3.29296875 C-6.845625 3.95296875 -7.175625 4.61296875 -7.515625 5.29296875 C-6.855625 5.29296875 -6.195625 5.29296875 -5.515625 5.29296875 C-5.845625 6.28296875 -6.175625 7.27296875 -6.515625 8.29296875 C-7.505625 7.96296875 -8.495625 7.63296875 -9.515625 7.29296875 C-9.845625 8.28296875 -10.175625 9.27296875 -10.515625 10.29296875 C-10.845625 10.29296875 -11.175625 10.29296875 -11.515625 10.29296875 C-11.0276776 3.82766573 -11.0276776 3.82766573 -8.87597656 1.58081055 C-5.76448611 -0.11686344 -3.53493124 -0.04820361 0 0 Z " fill="#875361" transform="translate(68.515625,125.70703125)"/>
<path d="M0 0 C0.6290625 0.20496094 1.258125 0.40992188 1.90625 0.62109375 C3.19015625 1.02521484 3.19015625 1.02521484 4.5 1.4375 C5.75296875 1.83775391 5.75296875 1.83775391 7.03125 2.24609375 C14.81833116 4.22360252 22.51609653 4.1245758 30.5 4.0625 C31.60859375 4.05798828 32.7171875 4.05347656 33.859375 4.04882812 C36.57297399 4.03713158 39.28645761 4.02074086 42 4 C41.67 4.66 41.34 5.32 41 6 C38.03 5.67 35.06 5.34 32 5 C32 5.66 32 6.32 32 7 C23.42 6.34 14.84 5.68 6 5 C6 4.34 6 3.68 6 3 C4.35 3 2.7 3 1 3 C0.67 2.01 0.34 1.02 0 0 Z " fill="#CEB5B6" transform="translate(58,254)"/>
<path d="M0 0 C0.66 0 1.32 0 2 0 C2.33 1.32 2.66 2.64 3 4 C3.99 3.34 4.98 2.68 6 2 C6.66 1.67 7.32 1.34 8 1 C8.66 1.33 9.32 1.66 10 2 C8.80100302 5.0831351 7.52299523 8.06279492 6 11 C4.02 10.34 2.04 9.68 0 9 C0 6.03 0 3.06 0 0 Z " fill="#BCB3A2" transform="translate(381,370)"/>
<path d="M0 0 C0.99 0.33 1.98 0.66 3 1 C4.23076923 7.4 4.23076923 7.4 3.0625 10.4375 C2.711875 10.953125 2.36125 11.46875 2 12 C0.125 11.875 0.125 11.875 -2 11 C-3.25 7.9375 -3.25 7.9375 -4 5 C-2.68 5 -1.36 5 0 5 C-0.33 4.01 -0.66 3.02 -1 2 C-0.67 1.34 -0.34 0.68 0 0 Z " fill="#C99EA9" transform="translate(59,133)"/>
<path d="M0 0 C0.66 0 1.32 0 2 0 C1.26480059 3.02482043 0.44109043 6.01370301 -0.4375 9 C-0.68371094 9.845625 -0.92992187 10.69125 -1.18359375 11.5625 C-2 14 -2 14 -3.05859375 16.078125 C-4.45935481 18.93776998 -4.63804401 21.86304806 -5 25 C-5.66 25 -6.32 25 -7 25 C-7.33784575 19.25662223 -7.22475005 15.89684267 -4 11 C-3.12715355 8.3896564 -2.37854765 5.76289362 -1.6484375 3.109375 C-1 1 -1 1 0 0 Z " fill="#D2C6C3" transform="translate(46,192)"/>
<path d="M0 0 C2.97 0 5.94 0 9 0 C5 2 5 2 2 2 C1.67 3.65 1.34 5.3 1 7 C1.66 7.33 2.32 7.66 3 8 C2.979375 9.134375 2.95875 10.26875 2.9375 11.4375 C2.58422523 14.81575674 2.58422523 14.81575674 4 16 C4.04092937 18.33297433 4.04241723 20.66705225 4 23 C4.66 23 5.32 23 6 23 C5.67 24.32 5.34 25.64 5 27 C4.34 27 3.68 27 3 27 C2.86722656 26.32453125 2.73445313 25.6490625 2.59765625 24.953125 C2.42105469 24.06109375 2.24445313 23.1690625 2.0625 22.25 C1.88847656 21.36828125 1.71445313 20.4865625 1.53515625 19.578125 C1.05687669 17.09656679 1.05687669 17.09656679 0.4375 15.09375 C-0.18202265 12.12889162 -0.09274201 9.27420145 -0.0625 6.25 C-0.05347656 5.07953125 -0.04445313 3.9090625 -0.03515625 2.703125 C-0.02355469 1.81109375 -0.01195313 0.9190625 0 0 Z " fill="#3B384A" transform="translate(85,185)"/>
<path d="M0 0 C2 2 2 2 2.375 5.125 C1.92205289 9.80545346 0.33503416 12.98666004 -2 17 C-2.99 17 -3.98 17 -5 17 C-4.71515154 15.26969709 -4.42180062 13.54079286 -4.125 11.8125 C-3.96257812 10.84957031 -3.80015625 9.88664063 -3.6328125 8.89453125 C-2.16062176 2.16062176 -2.16062176 2.16062176 0 0 Z " fill="#843E50" transform="translate(136,160)"/>
<path d="M0 0 C1.65 0 3.3 0 5 0 C7.09230769 4.43076923 7.09230769 4.43076923 6.625 7.3125 C6.41875 7.869375 6.2125 8.42625 6 9 C4.02 9 2.04 9 0 9 C0 6.03 0 3.06 0 0 Z " fill="#716960" transform="translate(254,370)"/>
<path d="M0 0 C0.33 0.99 0.66 1.98 1 3 C2.65 3.33 4.3 3.66 6 4 C6 4.66 6 5.32 6 6 C5.01 6.33 4.02 6.66 3 7 C2.34 6.67 1.68 6.34 1 6 C1.33 8.97 1.66 11.94 2 15 C0.35 14.67 -1.3 14.34 -3 14 C-2.48594831 9.03083364 -1.76615118 4.70973649 0 0 Z " fill="#864E5E" transform="translate(37,228)"/>
<path d="M0 0 C2.2657748 4.02422137 1.9322324 6.35859689 1.1875 10.9375 C0.98259591 12.2703633 0.78083461 13.6037131 0.58203125 14.9375 C0.48100098 15.61039063 0.3799707 16.28328125 0.27587891 16.9765625 C-0.40323951 21.95756557 -0.67866569 26.98549356 -1 32 C-1.33 32 -1.66 32 -2 32 C-2.05898369 28.54174064 -2.09392131 25.0836138 -2.125 21.625 C-2.14175781 20.65949219 -2.15851562 19.69398438 -2.17578125 18.69921875 C-2.21924836 12.22261957 -1.53232671 6.293423 0 0 Z " fill="#884E5C" transform="translate(54,168)"/>
<path d="M0 0 C-0.62648438 0.26554688 -1.25296875 0.53109375 -1.8984375 0.8046875 C-2.71570313 1.15789062 -3.53296875 1.51109375 -4.375 1.875 C-5.18710937 2.22304687 -5.99921875 2.57109375 -6.8359375 2.9296875 C-9.13802299 3.92446067 -9.13802299 3.92446067 -11 6 C-13.8203125 6.4140625 -13.8203125 6.4140625 -17.125 6.625 C-18.22070312 6.69976562 -19.31640625 6.77453125 -20.4453125 6.8515625 C-21.28835938 6.90054688 -22.13140625 6.94953125 -23 7 C-17.16139166 2.35241598 -7.36333536 -2.24101511 0 0 Z " fill="#474F57" transform="translate(354,184)"/>
<path d="M0 0 C0.6875 2.25 0.6875 2.25 1 5 C-0.44901169 7.48402004 -1.42432563 8.71216281 -4 10 C-4.65213292 12.02463255 -4.65213292 12.02463255 -5 14 C-5.66 14 -6.32 14 -7 14 C-6.45323217 9.44360141 -5.72706364 5.2668631 -4 1 C-2 0 -2 0 0 0 Z " fill="#834554" transform="translate(62,151)"/>
<path d="M0 0 C0.2475 0.57234375 0.495 1.1446875 0.75 1.734375 C5.13812393 9.68784963 13.9199084 15.57537867 21 21 C17.34585936 21 16.60674181 20.18773013 13.8125 17.9375 C13.02359375 17.30585938 12.2346875 16.67421875 11.421875 16.0234375 C8.42251995 13.51752473 5.50625361 10.92999069 2.62890625 8.28515625 C1.08411488 6.7935333 1.08411488 6.7935333 -1 7 C-0.67 4.69 -0.34 2.38 0 0 Z " fill="#C78F9C" transform="translate(38,221)"/>
<path d="M0 0 C0.99 0 1.98 0 3 0 C2.67 2.64 2.34 5.28 2 8 C2.66 8 3.32 8 4 8 C4 8.66 4 9.32 4 10 C2.68 10 1.36 10 0 10 C0 9.34 0 8.68 0 8 C-0.66 8 -1.32 8 -2 8 C-2 8.66 -2 9.32 -2 10 C-2.99 10.33 -3.98 10.66 -5 11 C-4.32902328 6.80639551 -2.1441606 3.59665648 0 0 Z " fill="#CDBDBE" transform="translate(55,128)"/>
<path d="M0 0 C1.81242052 -0.02687279 3.62495233 -0.04633715 5.4375 -0.0625 C6.44683594 -0.07410156 7.45617187 -0.08570313 8.49609375 -0.09765625 C11 0 11 0 12 1 C12.04080783 2.99958364 12.04254356 5.00045254 12 7 C12.66 7 13.32 7 14 7 C14.144375 8.134375 14.28875 9.26875 14.4375 10.4375 C14.61171478 13.80777201 14.61171478 13.80777201 16 15 C16.14115161 17.67058851 16.04247107 20.32432238 16 23 C15.67 23 15.34 23 15 23 C15 20.69 15 18.38 15 16 C14.34 16 13.68 16 13 16 C11.23384882 11.29026351 10.51405169 6.96916636 10 2 C6.7 1.67 3.4 1.34 0 1 C0 0.67 0 0.34 0 0 Z " fill="#3F3A49" transform="translate(104,185)"/>
<path d="M0 0 C0.96070434 2.88211302 1.10581883 4.69850044 1.0625 7.6875 C1.05347656 8.49574219 1.04445312 9.30398437 1.03515625 10.13671875 C1.02355469 10.75160156 1.01195312 11.36648437 1 12 C0.01 12.495 0.01 12.495 -1 13 C-1 12.01 -1 11.02 -1 10 C-1.99 11.485 -1.99 11.485 -3 13 C-3 12.01 -3 11.02 -3 10 C-3.66 10 -4.32 10 -5 10 C-5 10.66 -5 11.32 -5 12 C-5.66 11.67 -6.32 11.34 -7 11 C-6.02262231 9.35310365 -5.0430468 7.70751146 -4.0625 6.0625 C-3.51722656 5.14597656 -2.97195312 4.22945312 -2.41015625 3.28515625 C-1 1 -1 1 0 0 Z " fill="#824554" transform="translate(141,176)"/>
<path d="M0 0 C0.66 0.33 1.32 0.66 2 1 C1.979375 2.03125 1.95875 3.0625 1.9375 4.125 C1.99276661 7.55152969 2.34550715 10.64572414 3 14 C2.01 14.495 2.01 14.495 1 15 C1 14.01 1 13.02 1 12 C0.01 12.495 0.01 12.495 -1 13 C-1.65555119 15.52733235 -1.65555119 15.52733235 -2 18 C-2.33 18 -2.66 18 -3 18 C-3.05422947 16.5629191 -3.09289723 15.12524538 -3.125 13.6875 C-3.14820313 12.88699219 -3.17140625 12.08648437 -3.1953125 11.26171875 C-3 9 -3 9 -1 6 C-0.60986284 4.0103005 -0.26797351 2.00980131 0 0 Z " fill="#854C5B" transform="translate(56,193)"/>
<path d="M0 0 C0 3.18660675 -0.84545836 5.14666435 -2.1328125 8.015625 C-3.56414142 11.29091821 -4.76454642 14.64662599 -6 18 C-7.22419163 14.06204091 -6.48320272 11.83887763 -5 8 C-5.99 8.495 -5.99 8.495 -7 9 C-7.33 7.68 -7.66 6.36 -8 5 C-4.04 2.525 -4.04 2.525 0 0 Z " fill="#C9A3AB" transform="translate(148,165)"/>
<path d="M0 0 C0.66 0 1.32 0 2 0 C2 0.99 2 1.98 2 3 C2.66 3 3.32 3 4 3 C3.34 5.31 2.68 7.62 2 10 C0.35 10 -1.3 10 -3 10 C-2.25 3.25 -2.25 3.25 0 1 C0 0.67 0 0.34 0 0 Z " fill="#7C3547" transform="translate(130,198)"/>
<path d="M0 0 C0.66 0 1.32 0 2 0 C2 0.66 2 1.32 2 2 C2.99 1.67 3.98 1.34 5 1 C5.66 1.33 6.32 1.66 7 2 C7.33 1.34 7.66 0.68 8 0 C7.67 2.64 7.34 5.28 7 8 C5.68 8.33 4.36 8.66 3 9 C2.01 6.03 1.02 3.06 0 0 Z " fill="#898074" transform="translate(353,370)"/>
<path d="M0 0 C0 0.66 0 1.32 0 2 C0.86625 2.061875 0.86625 2.061875 1.75 2.125 C5.13312465 3.44065958 6.19222685 5.96552364 8 9 C5 9 5 9 2.5625 7.375 C1.2940625 6.694375 1.2940625 6.694375 0 6 C-2.30287793 6.69140351 -2.30287793 6.69140351 -4 8 C-3.34 6.35 -2.68 4.7 -2 3 C-2.66 2.34 -3.32 1.68 -4 1 C-2 0 -2 0 0 0 Z " fill="#CEB4B6" transform="translate(128,134)"/>
<path d="M0 0 C1.21171875 0.00322266 2.4234375 0.00644531 3.671875 0.00976562 C4.94289063 0.01814453 6.21390625 0.02652344 7.5234375 0.03515625 C8.8021875 0.03966797 10.0809375 0.04417969 11.3984375 0.04882812 C14.56515042 0.06064422 17.73177106 0.0771181 20.8984375 0.09765625 C16.47530227 3.04641307 12.1751494 2.64055751 6.9609375 2.84765625 C5.95869141 2.90308594 4.95644531 2.95851563 3.92382812 3.015625 C2.95767578 3.05816406 1.99152344 3.10070312 0.99609375 3.14453125 C0.11445557 3.18416992 -0.76718262 3.22380859 -1.67553711 3.26464844 C-4.29420928 3.08439567 -5.86166082 2.42592088 -8.1015625 1.09765625 C-5.33538687 -0.28543156 -3.0913825 -0.01444571 0 0 Z " fill="#D5D4CA" transform="translate(363.1015625,352.90234375)"/>
<path d="M0 0 C0.66 0 1.32 0 2 0 C2 4.29 2 8.58 2 13 C0.68 12.34 -0.64 11.68 -2 11 C-3.99220557 10.31039038 -5.99105606 9.63920943 -8 9 C-4.94736336 8.01879536 -3.05263664 8.01879536 0 9 C-0.185625 7.700625 -0.37125 6.40125 -0.5625 5.0625 C-0.87890625 2.84765625 -0.87890625 2.84765625 -1 1 C-0.67 0.67 -0.34 0.34 0 0 Z " fill="#84515D" transform="translate(49,173)"/>
<path d="M0 0 C2.0625 0.4375 2.0625 0.4375 4 1 C4.33 2.65 4.66 4.3 5 6 C2.625 6.625 2.625 6.625 0 7 C-0.66 6.34 -1.32 5.68 -2 5 C-1.46428571 1.46428571 -1.46428571 1.46428571 0 0 Z " fill="#9D958C" transform="translate(303,372)"/>
<path d="M0 0 C0.66 0.33 1.32 0.66 2 1 C1.67 3.64 1.34 6.28 1 9 C0.01 9.33 -0.98 9.66 -2 10 C-2.33 12.31 -2.66 14.62 -3 17 C-2.34 17.33 -1.68 17.66 -1 18 C-2.65 17.67 -4.3 17.34 -6 17 C-4.02 11.39 -2.04 5.78 0 0 Z " fill="#844858" transform="translate(130,191)"/>
<path d="M0 0 C0.99 0.495 0.99 0.495 2 1 C2 2.32 2 3.64 2 5 C2.66 5 3.32 5 4 5 C5.625 7.5 5.625 7.5 7 10 C5.625 12 5.625 12 4 14 C3.34 14 2.68 14 2 14 C-0.29612756 4.58997722 -0.29612756 4.58997722 0 0 Z " fill="#8A4B5A" transform="translate(55,216)"/>
<path d="M0 0 C0 0.66 0 1.32 0 2 C-3.96 2 -7.92 2 -12 2 C-12 1.01 -12 0.02 -12 -1 C-3.42857143 -2.42857143 -3.42857143 -2.42857143 0 0 Z " fill="#783646" transform="translate(118,143)"/>
<path d="M0 0 C0.66 0 1.32 0 2 0 C2.66 2.64 3.32 5.28 4 8 C1.69 8 -0.62 8 -3 8 C-3.33 7.34 -3.66 6.68 -4 6 C-3.0625 3.875 -3.0625 3.875 -2 2 C-1.34 2 -0.68 2 0 2 C0 1.34 0 0.68 0 0 Z " fill="#884D5D" transform="translate(53,136)"/>
<path d="M0 0 C0.66 0.33 1.32 0.66 2 1 C1.36610765 4.49844386 -0.05177694 6.84086876 -2.0625 9.75 C-2.61035156 10.54921875 -3.15820312 11.3484375 -3.72265625 12.171875 C-4.14417969 12.77515625 -4.56570312 13.3784375 -5 14 C-6.00054954 10.86314199 -6.08787223 10.21089336 -4.75 7 C-3.29486493 4.50548273 -1.81140775 2.2426953 0 0 Z " fill="#D2C2BF" transform="translate(48,138)"/>
<path d="M0 0 C2.97 0 5.94 0 9 0 C9.33 0.99 9.66 1.98 10 3 C8.68 3.99 7.36 4.98 6 6 C3.96166576 4.7260411 1.96147874 3.38938077 0 2 C0 1.34 0 0.68 0 0 Z " fill="#373737" transform="translate(486,0)"/>
<path d="M0 0 C1.98 0.99 1.98 0.99 4 2 C4.72909456 4.43031519 5 6.47161625 5 9 C3.68 9 2.36 9 1 9 C0.67 6.03 0.34 3.06 0 0 Z " fill="#7D3145" transform="translate(38,234)"/>
<path d="M0 0 C3.16115776 1.36983503 3.9927092 1.9890638 6 5 C6.25760279 7.69452521 6.08900053 10.28548375 6 13 C5.34 13 4.68 13 4 13 C3.67 10.36 3.34 7.72 3 5 C2.01 4.67 1.02 4.34 0 4 C0 2.68 0 1.36 0 0 Z " fill="#7C4453" transform="translate(144,152)"/>
<path d="M0 0 C1.32 0.66 2.64 1.32 4 2 C3.67 3.65 3.34 5.3 3 7 C1.35 6.67 -0.3 6.34 -2 6 C-1.125 1.125 -1.125 1.125 0 0 Z " fill="#8B8475" transform="translate(392,372)"/>
<path d="M0 0 C0.66 0 1.32 0 2 0 C2 4.62 2 9.24 2 14 C1.67 14 1.34 14 1 14 C1 11.69 1 9.38 1 7 C-0.98 7.99 -0.98 7.99 -3 9 C-2.44271087 5.65626525 -1.64826111 2.96687001 0 0 Z " fill="#8A5C67" transform="translate(49,191)"/>
<path d="M0 0 C0.66 0 1.32 0 2 0 C3.67110042 2.96178773 4.32682752 5.37071192 4.625 8.75 C4.69976562 9.54921875 4.77453125 10.3484375 4.8515625 11.171875 C4.92503906 12.07679688 4.92503906 12.07679688 5 13 C1.33329274 10.5555285 1.06655209 9.18416588 0 5 C-0.125 2.125 -0.125 2.125 0 0 Z " fill="#853A4E" transform="translate(55,205)"/>
<path d="M0 0 C0.66 0 1.32 0 2 0 C2 0.99 2 1.98 2 3 C2.66 3.66 3.32 4.32 4 5 C2.25 11.75 2.25 11.75 0 14 C0 9.38 0 4.76 0 0 Z " fill="#843D50" transform="translate(53,188)"/>
<path d="M0 0 C0.66 0 1.32 0 2 0 C0.63408831 3.54243452 -0.90931484 6.92627929 -2.625 10.3125 C-3.07101563 11.19550781 -3.51703125 12.07851562 -3.9765625 12.98828125 C-4.31429688 13.65214844 -4.65203125 14.31601563 -5 15 C-5.66 14.34 -6.32 13.68 -7 13 C-6.34 11.02 -5.68 9.04 -5 7 C-4.34 7 -3.68 7 -3 7 C-2.690625 6.030625 -2.38125 5.06125 -2.0625 4.0625 C-1 1 -1 1 0 0 Z " fill="#D3C4C1" transform="translate(34,161)"/>
<path d="M0 0 C0.66 0.33 1.32 0.66 2 1 C1.54625 1.556875 1.0925 2.11375 0.625 2.6875 C-1.11759315 4.94336572 -1.11759315 4.94336572 -1.9375 7.6875 C-3 10 -3 10 -5.125 10.8125 C-5.74375 10.874375 -6.3625 10.93625 -7 11 C-5.72278474 6.00724943 -3.82669043 3.42388092 0 0 Z " fill="#D3D0C6" transform="translate(349,214)"/>
<path d="M0 0 C2.40072955 2.88087546 4.47291037 5.56404834 6 9 C3.6875 9.25 3.6875 9.25 1 9 C-0.9375 7.3125 -0.9375 7.3125 -2 5 C-1.1875 2.25 -1.1875 2.25 0 0 Z " fill="#844453" transform="translate(69,231)"/>
<path d="M0 0 C0.99 0.33 1.98 0.66 3 1 C2.33501617 5.38889325 0.81242323 8.9811485 -1 13 C-1.33 13 -1.66 13 -2 13 C-1.85769192 11.58297487 -1.71099254 10.1663904 -1.5625 8.75 C-1.48128906 7.96109375 -1.40007812 7.1721875 -1.31640625 6.359375 C-1.02365007 4.17635361 -0.57935581 2.1226818 0 0 Z " fill="#D4D0C8" transform="translate(292,184)"/>
<path d="M0 0 C0.33 0 0.66 0 1 0 C0.67 2.97 0.34 5.94 0 9 C-0.99 8.67 -1.98 8.34 -3 8 C-3.33 8.99 -3.66 9.98 -4 11 C-4.33 10.34 -4.66 9.68 -5 9 C-2.6 2.6 -2.6 2.6 0 0 Z " fill="#7C4653" transform="translate(149,166)"/>
<path d="M0 0 C2.36891933 0.79108072 4.27307107 1.83083324 6.390625 3.15234375 C7.09703125 3.58417969 7.8034375 4.01601562 8.53125 4.4609375 C9.06234375 4.87472656 9.5934375 5.28851563 10.140625 5.71484375 C10.140625 6.37484375 10.140625 7.03484375 10.140625 7.71484375 C6.18699137 6.54672472 3.34838344 5.2810505 0.140625 2.71484375 C-1.17773795 2.01904108 -2.50728586 1.34259942 -3.859375 0.71484375 C-1.859375 -0.28515625 -1.859375 -0.28515625 0 0 Z " fill="#D4C6C3" transform="translate(94.859375,122.28515625)"/>
<path d="M0 0 C0.33 0 0.66 0 1 0 C1.33 3.96 1.66 7.92 2 12 C3.32 12 4.64 12 6 12 C6 12.66 6 13.32 6 14 C3.69 14 1.38 14 -1 14 C-0.835 13.175 -0.67 12.35 -0.5 11.5 C0.05896045 7.58727683 0.06807187 3.94816827 0 0 Z " fill="#404856" transform="translate(138,290)"/>
<path d="M0 0 C2.31 0.33 4.62 0.66 7 1 C6.360625 1.474375 5.72125 1.94875 5.0625 2.4375 C2.15149728 6.05420035 2.19350218 9.47204894 2 14 C1.67 14 1.34 14 1 14 C0.04738513 9.23692563 -0.08333357 4.8333472 0 0 Z " fill="#D8D4CA" transform="translate(123,213)"/>
<path d="M0 0 C4.29 0.66 8.58 1.32 13 2 C12.67 2.99 12.34 3.98 12 5 C9.9375 5.6875 9.9375 5.6875 8 6 C8 5.34 8 4.68 8 4 C7.05125 3.71125 6.1025 3.4225 5.125 3.125 C2 2 2 2 0 0 Z " fill="#D5D1CA" transform="translate(360,279)"/>
<path d="M0 0 C0.66 1.32 1.32 2.64 2 4 C1.525625 4.433125 1.05125 4.86625 0.5625 5.3125 C-1.23686957 7.02309613 -1.23686957 7.02309613 -2 10 C-2.66 10 -3.32 10 -4 10 C-4.33 10.66 -4.66 11.32 -5 12 C-5.33 11.34 -5.66 10.68 -6 10 C-4.78515625 7.6171875 -4.78515625 7.6171875 -3.0625 4.875 C-2.21365234 3.50988281 -2.21365234 3.50988281 -1.34765625 2.1171875 C-0.90292969 1.41851562 -0.45820312 0.71984375 0 0 Z " fill="#864F5D" transform="translate(37,160)"/>
<path d="M0 0 C2.66931006 5.12552394 4.35375916 10.16297391 4 16 C1.42380724 14.08684881 1.01604768 13.0983686 0.48828125 9.86328125 C0.43027344 8.69152344 0.37226563 7.51976562 0.3125 6.3125 C0.24675781 5.13300781 0.18101562 3.95351563 0.11328125 2.73828125 C0.07589844 1.83464844 0.03851563 0.93101562 0 0 Z " fill="#CDCCC6" transform="translate(212,334)"/>
<path d="M0 0 C-0.33 0.66 -0.66 1.32 -1 2 C-3.97 1.67 -6.94 1.34 -10 1 C-10 1.66 -10 2.32 -10 3 C-13.3 2.67 -16.6 2.34 -20 2 C-20 1.67 -20 1.34 -20 1 C-13.30324864 -0.03026944 -6.7685324 -0.10152799 0 0 Z " fill="#C2A9AC" transform="translate(100,258)"/>
<path d="M0 0 C0.33 0 0.66 0 1 0 C1.16533484 4.29870596 1.21065389 7.26952156 -1 11 C-1 11.66 -1 12.32 -1 13 C-1.66 13 -2.32 13 -3 13 C-2.88490339 11.58249437 -2.75746342 10.16598831 -2.625 8.75 C-2.55539063 7.96109375 -2.48578125 7.1721875 -2.4140625 6.359375 C-1.98492887 3.914123 -1.21399362 2.15163097 0 0 Z " fill="#4A5158" transform="translate(157,250)"/>
<path d="M0 0 C1.9375 0.75 1.9375 0.75 4 2 C4.75 4.125 4.75 4.125 5 6 C6.32 6 7.64 6 9 6 C8.67 7.32 8.34 8.64 8 10 C6.84481082 9.09515208 5.70114594 8.1755794 4.5625 7.25 C3.60537109 6.48429688 3.60537109 6.48429688 2.62890625 5.703125 C0.81189446 3.80332371 0.39576803 2.56413092 0 0 Z " fill="#D8D6CC" transform="translate(343,234)"/>
<path d="M0 0 C0.33 0 0.66 0 1 0 C1 4.29 1 8.58 1 13 C0.01 13 -0.98 13 -2 13 C-2.19294408 8.17639811 -1.75747614 4.50353262 0 0 Z " fill="#D5CAC7" transform="translate(34,231)"/>
<path d="M0 0 C0.66 0 1.32 0 2 0 C2 0.66 2 1.32 2 2 C4.31 2 6.62 2 9 2 C9 2.99 9 3.98 9 5 C7.02 5 5.04 5 3 5 C2.34 6.32 1.68 7.64 1 9 C0.67 6.03 0.34 3.06 0 0 Z " fill="#C2BABA" transform="translate(121,209)"/>
<path d="M0 0 C0.33 1.32 0.66 2.64 1 4 C-1.64 4.33 -4.28 4.66 -7 5 C-7.33 3.68 -7.66 2.36 -8 1 C-5.36 0.67 -2.72 0.34 0 0 Z " fill="#A6848C" transform="translate(132,207)"/>
<path d="M0 0 C0.65234375 1.734375 0.65234375 1.734375 1 4 C0.00390625 6.140625 0.00390625 6.140625 -1.4375 8.25 C-1.91058594 8.95640625 -2.38367188 9.6628125 -2.87109375 10.390625 C-3.24363281 10.92171875 -3.61617187 11.4528125 -4 12 C-5 10 -5 10 -4.51171875 7.87109375 C-4.23972656 7.06800781 -3.96773437 6.26492187 -3.6875 5.4375 C-3.42324219 4.63183594 -3.15898437 3.82617188 -2.88671875 2.99609375 C-2 1 -2 1 0 0 Z " fill="#784350" transform="translate(137,175)"/>
<path d="M0 0 C0.639375 0.2475 1.27875 0.495 1.9375 0.75 C2.2675 1.74 2.5975 2.73 2.9375 3.75 C0.97283587 4.81775224 -1.03105359 5.81553465 -3.0625 6.75 C-3.7225 6.42 -4.3825 6.09 -5.0625 5.75 C-4.6875 3.3125 -4.6875 3.3125 -4.0625 0.75 C-2.0625 -0.25 -2.0625 -0.25 0 0 Z " fill="#93606C" transform="translate(143.0625,164.25)"/>
<path d="M0 0 C0.99 0 1.98 0 3 0 C4.33583899 4.84241633 5.25328119 8.93437617 5 14 C2.42853943 11.42853943 2.19882003 9.3949583 1.375 5.875 C1.11460938 4.77929688 0.85421875 3.68359375 0.5859375 2.5546875 C0.39257812 1.71164063 0.19921875 0.86859375 0 0 Z " fill="#68384B" transform="translate(80,184)"/>
<path d="M0 0 C0 0.66 0 1.32 0 2 C0.66 2.33 1.32 2.66 2 3 C0.02 3.99 0.02 3.99 -2 5 C-2.33 4.34 -2.66 3.68 -3 3 C-5.64 3 -8.28 3 -11 3 C-6.86621405 0.2441427 -4.94796454 -0.10756445 0 0 Z " fill="#D8CFCA" transform="translate(125,131)"/>
<path d="M0 0 C3 0 3 0 6 1 C6 1.66 6 2.32 6 3 C4.35 3 2.7 3 1 3 C1 3.66 1 4.32 1 5 C2.65 4.67 4.3 4.34 6 4 C5.67 4.66 5.34 5.32 5 6 C3.35 6 1.7 6 0 6 C-0.38218767 4.34385343 -0.71395102 2.67542976 -1 1 C-0.67 0.67 -0.34 0.34 0 0 Z " fill="#5C5449" transform="translate(368,373)"/>
<path d="M0 0 C1.485 0.99 1.485 0.99 3 2 C3.29296875 4.6015625 3.29296875 4.6015625 3.1875 7.625 C3.16042969 8.62789063 3.13335937 9.63078125 3.10546875 10.6640625 C3.07066406 11.43492187 3.03585938 12.20578125 3 13 C0.62054735 8.24109471 -0.10095578 5.45161235 0 0 Z " fill="#3D464E" transform="translate(210,321)"/>
<path d="M0 0 C2.56616632 3.84924948 2.55097676 6.4349304 3 11 C0.69 11 -1.62 11 -4 11 C-2.68 10.67 -1.36 10.34 0 10 C-0.08378906 9.36191406 -0.16757813 8.72382813 -0.25390625 8.06640625 C-0.35574219 7.24011719 -0.45757812 6.41382813 -0.5625 5.5625 C-0.66691406 4.73878906 -0.77132812 3.91507813 -0.87890625 3.06640625 C-0.91886719 2.38449219 -0.95882812 1.70257813 -1 1 C-0.67 0.67 -0.34 0.34 0 0 Z " fill="#7B495B" transform="translate(96,247)"/>
<path d="M0 0 C0.99 0 1.98 0 3 0 C3.26218749 3.14624993 3.24754367 4.61837017 1.5 7.3125 C0.7575 8.1478125 0.7575 8.1478125 0 9 C-0.66 8.67 -1.32 8.34 -2 8 C-1.34 5.36 -0.68 2.72 0 0 Z " fill="#D2D2C8" transform="translate(185,244)"/>
<path d="M0 0 C3.02952364 4.54428546 5.25108796 9.539338 4.6875 15.0625 C4.460625 15.701875 4.23375 16.34125 4 17 C3.67 17 3.34 17 3 17 C2.49453964 14.91798472 1.99583165 12.83432933 1.5 10.75 C1.2215625 9.58984375 0.943125 8.4296875 0.65625 7.234375 C0 4 0 4 0 0 Z " fill="#BAB8B6" transform="translate(127,239)"/>
<path d="M0 0 C0.66 0 1.32 0 2 0 C1.91291331 1.45945288 1.80473093 2.91765868 1.6875 4.375 C1.62949219 5.18710937 1.57148438 5.99921875 1.51171875 6.8359375 C1 9 1 9 -2 11 C-1.85892253 9.54119891 -1.71197585 8.08296449 -1.5625 6.625 C-1.48128906 5.81289063 -1.40007812 5.00078125 -1.31640625 4.1640625 C-1 2 -1 2 0 0 Z " fill="#CFCAC3" transform="translate(261,320)"/>
<path d="M0 0 C3.96 0.33 7.92 0.66 12 1 C12 1.33 12 1.66 12 2 C9.36 2.33 6.72 2.66 4 3 C4 3.66 4 4.32 4 5 C1.525 4.01 1.525 4.01 -1 3 C-0.67 2.01 -0.34 1.02 0 0 Z " fill="#824653" transform="translate(102,140)"/>
<path d="M0 0 C0.66 0 1.32 0 2 0 C2.66 0.99 3.32 1.98 4 3 C4.66 2.34 5.32 1.68 6 1 C5.44271087 4.34373475 4.64826111 7.03312999 3 10 C2.34 9.67 1.68 9.34 1 9 C1.33 8.01 1.66 7.02 2 6 C1.11680706 2.84979639 1.11680706 2.84979639 0 0 Z " fill="#645B4E" transform="translate(267,372)"/>
<path d="M0 0 C2.48862878 3.23521742 4.75421558 6.59260295 7 10 C4.625 9.6875 4.625 9.6875 2 9 C-0.29013653 5.5647952 -0.17842973 4.014669 0 0 Z " fill="#D7D3CB" transform="translate(304,322)"/>
<path d="M0 0 C0.33 0 0.66 0 1 0 C2.52597403 7.05762987 2.52597403 7.05762987 0.5 10.6875 C0.005 11.450625 -0.49 12.21375 -1 13 C-2.07310858 9.72814447 -1.89263102 7.57052408 -1.0625 4.25 C-0.86785156 3.45078125 -0.67320312 2.6515625 -0.47265625 1.828125 C-0.31667969 1.22484375 -0.16070312 0.6215625 0 0 Z " fill="#D0CEC7" transform="translate(264,305)"/>
<path d="M0 0 C0 0.66 0 1.32 0 2 C-3.96 2.99 -7.92 3.98 -12 5 C-12 4.34 -12 3.68 -12 3 C-4.71428571 -0.42857143 -4.71428571 -0.42857143 0 0 Z " fill="#D7D3CB" transform="translate(354,181)"/>
<path d="M0 0 C0.66 0.99 1.32 1.98 2 3 C0.35 5.31 -1.3 7.62 -3 10 C-3.66 9.34 -4.32 8.68 -5 8 C-3.38731308 5.28775382 -1.75098126 2.62647188 0 0 Z " fill="#D0C2BE" transform="translate(40,151)"/>
<path d="M0 0 C1.32 0.66 2.64 1.32 4 2 C2.68 2.33 1.36 2.66 0 3 C0 3.66 0 4.32 0 5 C0.66 5.33 1.32 5.66 2 6 C-0.64 6 -3.28 6 -6 6 C-6 5.34 -6 4.68 -6 4 C-4.35 4 -2.7 4 -1 4 C-0.67 2.68 -0.34 1.36 0 0 Z " fill="#D6CDC0" transform="translate(375,372)"/>
<path d="M0 0 C1.45047396 2.90094791 0.45356803 4.55972596 -0.4375 7.625 C-0.86869141 9.12933594 -0.86869141 9.12933594 -1.30859375 10.6640625 C-1.53675781 11.43492187 -1.76492187 12.20578125 -2 13 C-3.94566951 9.52452927 -4.07637127 7.87493656 -3 4 C-2.34 4 -1.68 4 -1 4 C-0.67 2.68 -0.34 1.36 0 0 Z " fill="#4A525A" transform="translate(176,277)"/>
<path d="M0 0 C0.99 0.33 1.98 0.66 3 1 C3.33 2.65 3.66 4.3 4 6 C4.66 6 5.32 6 6 6 C6 8.31 6 10.62 6 13 C4.43926745 10.65890118 3.13626133 8.43666597 1.875 5.9375 C1.34519531 4.89916016 1.34519531 4.89916016 0.8046875 3.83984375 C0 2 0 2 0 0 Z " fill="#D3CFC8" transform="translate(425,274)"/>
<path d="M0 0 C0.33 0 0.66 0 1 0 C1 3.63 1 7.26 1 11 C0.01 11.33 -0.98 11.66 -2 12 C-1.85831863 10.56208484 -1.71148957 9.1246763 -1.5625 7.6875 C-1.48128906 6.88699219 -1.40007812 6.08648437 -1.31640625 5.26171875 C-1 3 -1 3 0 0 Z " fill="#C3C4BC" transform="translate(283,223)"/>
<path d="M0 0 C1.43410153 3.78819273 0.51009497 6.06521279 -0.9375 9.75 C-1.31777344 10.73484375 -1.69804687 11.7196875 -2.08984375 12.734375 C-2.39019531 13.48203125 -2.69054687 14.2296875 -3 15 C-4.15782198 11.61915982 -3.83835147 9.70336781 -2.625 6.375 C-2.34914062 5.59898437 -2.07328125 4.82296875 -1.7890625 4.0234375 C-1 2 -1 2 0 0 Z " fill="#874A5A" transform="translate(131,179)"/>
<path d="M0 0 C0.33 0 0.66 0 1 0 C1 2.64 1 5.28 1 8 C0.01 8 -0.98 8 -2 8 C-2.6875 6.25 -2.6875 6.25 -3 4 C-1.625 1.75 -1.625 1.75 0 0 Z " fill="#7F4A58" transform="translate(60,135)"/>
<path d="M0 0 C0.66 0 1.32 0 2 0 C1.01 4.62 0.02 9.24 -1 14 C-1.33 14 -1.66 14 -2 14 C-2.3690205 4.58997722 -2.3690205 4.58997722 0 0 Z " fill="#494F58" transform="translate(270,274)"/>
<path d="M0 0 C1.60080151 4.00200378 0.29279692 7.04556236 -1 11 C-1.66 10.67 -2.32 10.34 -3 10 C-2.25 3.375 -2.25 3.375 0 0 Z " fill="#CBCAC3" transform="translate(149,275)"/>
<path d="M0 0 C0.66 0.33 1.32 0.66 2 1 C1.01 4.3 0.02 7.6 -1 11 C-1.66 10.34 -2.32 9.68 -3 9 C-2.56237193 5.82719649 -1.22638495 2.94332389 0 0 Z " fill="#854858" transform="translate(57,144)"/>
<path d="M0 0 C1.43931117 0.45261358 2.87638999 0.91232979 4.3125 1.375 C5.11300781 1.63023437 5.91351563 1.88546875 6.73828125 2.1484375 C9 3 9 3 12 5 C8.8125 5.3125 8.8125 5.3125 5 5 C2.0625 2.5 2.0625 2.5 0 0 Z " fill="#855863" transform="translate(101,135)"/>
<path d="M0 0 C0.33 0.99 0.66 1.98 1 3 C-0.98 4.32 -2.96 5.64 -5 7 C-5.99 6.34 -6.98 5.68 -8 5 C-4.04 2.525 -4.04 2.525 0 0 Z " fill="#CECCC3" transform="translate(413,342)"/>
<path d="M0 0 C2.7972908 2.06756277 3.02692273 3.14440371 3.6875 6.6875 C3.790625 7.780625 3.89375 8.87375 4 10 C3.01 10.495 3.01 10.495 2 11 C0 3.375 0 3.375 0 0 Z " fill="#413B49" transform="translate(97,247)"/>
<path d="M0 0 C0.66 0.66 1.32 1.32 2 2 C1.63318342 4.93453261 1.13562754 5.86437246 -1 8 C-2 7 -2 7 -2.0625 3.9375 C-2.041875 2.968125 -2.02125 1.99875 -2 1 C-1.34 0.67 -0.68 0.34 0 0 Z " fill="#7F465A" transform="translate(122,201)"/>
<path d="M0 0 C0.66 0 1.32 0 2 0 C1.55005243 1.79379098 1.08975857 3.58498928 0.625 5.375 C0.36976563 6.37273437 0.11453125 7.37046875 -0.1484375 8.3984375 C-1 11 -1 11 -3 13 C-2.343621 8.51474352 -1.29925791 4.33085971 0 0 Z " fill="#BC8D97" transform="translate(144,170)"/>
<path d="M0 0 C1.32 0 2.64 0 4 0 C4 0.99 4 1.98 4 3 C5.65 3.33 7.3 3.66 9 4 C8.01 5.485 8.01 5.485 7 7 C5.83040013 6.02433888 4.66438823 5.044375 3.5 4.0625 C2.8503125 3.51722656 2.200625 2.97195312 1.53125 2.41015625 C1.0259375 1.94480469 0.520625 1.47945312 0 1 C0 0.67 0 0.34 0 0 Z " fill="#CDBBB9" transform="translate(136,144)"/>
<path d="M0 0 C3 0 3 0 4.38671875 1.3125 C5.59114583 2.875 6.79557292 4.4375 8 6 C7.01 6.33 6.02 6.66 5 7 C3.29115995 5.37660195 1.62553283 3.70680947 0 2 C0 1.34 0 0.68 0 0 Z " fill="#40484F" transform="translate(308,327)"/>
<path d="M0 0 C0.33 0.99 0.66 1.98 1 3 C2.65 3.33 4.3 3.66 6 4 C6 4.66 6 5.32 6 6 C3 7 3 7 0.8125 6.0625 C0.214375 5.711875 -0.38375 5.36125 -1 5 C-0.67 3.35 -0.34 1.7 0 0 Z " fill="#844555" transform="translate(37,228)"/>
<path d="M0 0 C0.99 0.33 1.98 0.66 3 1 C2.1875 2.9375 2.1875 2.9375 1 5 C0.01 5.33 -0.98 5.66 -2 6 C-2 4.35 -2 2.7 -2 1 C-1.34 0.67 -0.68 0.34 0 0 Z " fill="#7D4251" transform="translate(124,136)"/>
<path d="M0 0 C2.125 0.375 2.125 0.375 4 1 C4 1.99 4 2.98 4 4 C2.68 4 1.36 4 0 4 C-0.33 4.66 -0.66 5.32 -1 6 C-1.625 4.125 -1.625 4.125 -2 2 C-1.34 1.34 -0.68 0.68 0 0 Z " fill="#575045" transform="translate(303,372)"/>
<path d="M0 0 C0.33 0 0.66 0 1 0 C3.42857143 7.42857143 3.42857143 7.42857143 2 11 C-0.26881841 7.91440696 -1.05451946 6.57790624 -0.6875 2.6875 C-0.460625 1.800625 -0.23375 0.91375 0 0 Z " fill="#494E58" transform="translate(220,256)"/>
<path d="M0 0 C1.67542976 0.28604898 3.34385343 0.61781233 5 1 C4.67 1.99 4.34 2.98 4 4 C3.01 3.67 2.02 3.34 1 3 C0.67 3.99 0.34 4.98 0 6 C-0.33 6 -0.66 6 -1 6 C-1.042721 4.33388095 -1.04063832 2.66617115 -1 1 C-0.67 0.67 -0.34 0.34 0 0 Z " fill="#7E4756" transform="translate(58,130)"/>
<path d="M0 0 C1.98 0 3.96 0 6 0 C6.33 0.66 6.66 1.32 7 2 C6.34 2.66 5.68 3.32 5 4 C4.01 4 3.02 4 2 4 C1.34 2.68 0.68 1.36 0 0 Z " fill="#DBD3C3" transform="translate(367,379)"/>
<path d="M0 0 C1.32 0 2.64 0 4 0 C4 0.66 4 1.32 4 2 C3.34 2 2.68 2 2 2 C2 3.65 2 5.3 2 7 C1.34 7 0.68 7 0 7 C0 4.69 0 2.38 0 0 Z " fill="#8C8477" transform="translate(416,372)"/>
<path d="M0 0 C-0.33 0.99 -0.66 1.98 -1 3 C-2.8125 3.8125 -2.8125 3.8125 -5 4 C-7.25 3.0625 -7.25 3.0625 -9 2 C-3.375 0 -3.375 0 0 0 Z " fill="#CFCBC1" transform="translate(405,348)"/>
<path d="M0 0 C0.33 0.66 0.66 1.32 1 2 C1.66 2.33 2.32 2.66 3 3 C1.02 4.32 -0.96 5.64 -3 7 C-3.66 6.67 -4.32 6.34 -5 6 C-3.35 4.02 -1.7 2.04 0 0 Z " fill="#414852" transform="translate(317,307)"/>
<path d="M0 0 C4.75 1.875 4.75 1.875 7 3 C6.67 4.32 6.34 5.64 6 7 C4.02 4.69 2.04 2.38 0 0 Z " fill="#D6D5CF" transform="translate(329,305)"/>
<path d="M0 0 C0.268125 0.5775 0.53625 1.155 0.8125 1.75 C2.01719859 4.0325868 3.40798115 5.9737942 5 8 C2 8 2 8 -1 7 C-0.67 4.69 -0.34 2.38 0 0 Z " fill="#A5707D" transform="translate(38,221)"/>
<path d="M0 0 C6.75 1.625 6.75 1.625 9 5 C4.98525763 5 3.18024863 3.33218233 0 1 C0 0.67 0 0.34 0 0 Z " fill="#4A5156" transform="translate(396,216)"/>
<path d="M0 0 C0.66 0.99 1.32 1.98 2 3 C0.03533587 4.06775224 -1.96855359 5.06553465 -4 6 C-4.66 5.67 -5.32 5.34 -6 5 C-4.02 3.35 -2.04 1.7 0 0 Z " fill="#4A515A" transform="translate(326,194)"/>
<path d="M0 0 C1.67542976 0.28604898 3.34385343 0.61781233 5 1 C0.25 5 0.25 5 -2 5 C-1.125 1.125 -1.125 1.125 0 0 Z " fill="#DAD6CB" transform="translate(330,187)"/>
<path d="M0 0 C0.99 0 1.98 0 3 0 C3 1.65 3 3.3 3 5 C1.68 5.33 0.36 5.66 -1 6 C-0.67 4.02 -0.34 2.04 0 0 Z " fill="#CEC7B9" transform="translate(333,374)"/>
<path d="M0 0 C0.33 0 0.66 0 1 0 C3.42857143 7.42857143 3.42857143 7.42857143 2 11 C2 10.34 2 9.68 2 9 C1.34 9 0.68 9 0 9 C0 6.03 0 3.06 0 0 Z " fill="#C3C5BE" transform="translate(192,260)"/>
<path d="M0 0 C0 1.65 0 3.3 0 5 C0.66 5 1.32 5 2 5 C1.67 5.66 1.34 6.32 1 7 C0.34 6.67 -0.32 6.34 -1 6 C-1 5.34 -1 4.68 -1 4 C-1.99 4 -2.98 4 -4 4 C-3.67 3.01 -3.34 2.02 -3 1 C-1 0 -1 0 0 0 Z " fill="#7D3143" transform="translate(44,220)"/>
<path d="M0 0 C0.33 1.32 0.66 2.64 1 4 C-1.97 4 -4.94 4 -8 4 C-5.33333333 2.66666667 -2.66666667 1.33333333 0 0 Z " fill="#783E4B" transform="translate(146,203)"/>
<path d="M0 0 C1.32 1.32 2.64 2.64 4 4 C3.01 4.99 2.02 5.98 1 7 C0.34 6.34 -0.32 5.68 -1 5 C-0.625 2.375 -0.625 2.375 0 0 Z " fill="#444E55" transform="translate(422,199)"/>
<path d="M0 0 C1 2 1 2 1 5 C-1 7.1875 -1 7.1875 -3 9 C-3.33 8.34 -3.66 7.68 -4 7 C-3.22265625 5.2734375 -3.22265625 5.2734375 -2.0625 3.375 C-1.381875 2.26125 -0.70125 1.1475 0 0 Z " fill="#C89BA6" transform="translate(139,166)"/>
<path d="M0 0 C1.9375 0.75 1.9375 0.75 4 2 C4.75 4.125 4.75 4.125 5 6 C3.0625 5.25 3.0625 5.25 1 4 C0.25 1.875 0.25 1.875 0 0 Z " fill="#81535F" transform="translate(97,127)"/>
</svg>
